# 3ds Max Wavefront OBJ Exporter v0.97b - (c)2007 guruware
# File Created: 12.02.2016 14:48:29

mtllib A.mtl

#
# object Text001
#

v  -0.1475 0.0000 -0.2040
v  -0.2169 0.0000 -0.0100
v  -0.2098 0.0100 -0.0000
v  -0.1404 0.0100 -0.1940
v  0.1359 0.0000 -0.2040
v  0.1290 0.0100 -0.1940
v  0.2101 0.0000 -0.0100
v  0.2032 0.0100 -0.0000
v  0.2848 0.0000 -0.0100
v  0.2997 0.0100 -0.0000
v  0.0315 0.0000 -0.6310
v  0.0382 0.0100 -0.6410
v  -0.0482 0.0000 -0.6310
v  -0.0551 0.0100 -0.6410
v  -0.2852 0.0000 -0.0100
v  -0.2997 0.0100 -0.0000
v  -0.0492 0.0000 -0.4720
v  -0.0553 0.0000 -0.4547
v  -0.0459 0.0100 -0.4513
v  -0.0397 0.0100 -0.4687
v  -0.0434 0.0000 -0.4893
v  -0.0339 0.0100 -0.4862
v  -0.0381 0.0000 -0.5067
v  -0.0285 0.0100 -0.5038
v  -0.0330 0.0000 -0.5241
v  -0.0234 0.0100 -0.5215
v  -0.0284 0.0000 -0.5417
v  -0.0187 0.0100 -0.5392
v  -0.0241 0.0000 -0.5594
v  -0.0143 0.0100 -0.5571
v  -0.0118 0.0000 -0.6145
v  -0.0103 0.0100 -0.5750
v  0.0040 0.0000 -0.5622
v  -0.0056 0.0100 -0.5592
v  0.0093 0.0000 -0.5454
v  -0.0002 0.0100 -0.5423
v  0.0153 0.0000 -0.5275
v  0.0058 0.0100 -0.5242
v  0.0219 0.0000 -0.5084
v  0.0125 0.0100 -0.5051
v  0.0292 0.0000 -0.4883
v  0.0198 0.0100 -0.4848
v  0.0371 0.0000 -0.4670
v  0.0277 0.0100 -0.4634
v  0.0456 0.0000 -0.4445
v  0.0362 0.0100 -0.4410
v  0.1167 0.0000 -0.2530
v  0.1023 0.0100 -0.2630
v  -0.1298 0.0000 -0.2530
v  -0.1154 0.0100 -0.2630
v  -0.2098 0.1100 -0.0000
v  -0.1404 0.1100 -0.1940
v  0.1290 0.1100 -0.1940
v  0.2032 0.1100 -0.0000
v  0.2997 0.1100 -0.0000
v  0.0382 0.1100 -0.6410
v  -0.0551 0.1100 -0.6410
v  -0.2997 0.1100 -0.0000
v  -0.0459 0.1100 -0.4513
v  -0.0397 0.1100 -0.4687
v  -0.0339 0.1100 -0.4862
v  -0.0285 0.1100 -0.5038
v  -0.0234 0.1100 -0.5215
v  -0.0187 0.1100 -0.5392
v  -0.0143 0.1100 -0.5571
v  -0.0103 0.1100 -0.5750
v  -0.0056 0.1100 -0.5592
v  -0.0002 0.1100 -0.5423
v  0.0058 0.1100 -0.5242
v  0.0125 0.1100 -0.5051
v  0.0198 0.1100 -0.4848
v  0.0277 0.1100 -0.4634
v  0.0362 0.1100 -0.4410
v  0.1023 0.1100 -0.2630
v  -0.1154 0.1100 -0.2630
v  -0.2169 0.1200 -0.0100
v  -0.1475 0.1200 -0.2040
v  0.1359 0.1200 -0.2040
v  0.2101 0.1200 -0.0100
v  0.2848 0.1200 -0.0100
v  0.0315 0.1200 -0.6310
v  -0.0482 0.1200 -0.6310
v  -0.2852 0.1200 -0.0100
v  -0.0553 0.1200 -0.4547
v  -0.0492 0.1200 -0.4720
v  -0.0434 0.1200 -0.4893
v  -0.0381 0.1200 -0.5067
v  -0.0330 0.1200 -0.5241
v  -0.0284 0.1200 -0.5417
v  -0.0241 0.1200 -0.5594
v  -0.0118 0.1200 -0.6145
v  0.0040 0.1200 -0.5622
v  0.0093 0.1200 -0.5454
v  0.0153 0.1200 -0.5275
v  0.0219 0.1200 -0.5084
v  0.0292 0.1200 -0.4883
v  0.0371 0.1200 -0.4670
v  0.0456 0.1200 -0.4445
v  0.1167 0.1200 -0.2530
v  -0.1298 0.1200 -0.2530
# 100 vertices

vn -0.6658 0.7071 -0.2382
vn 0.0000 0.7071 -0.7071
vn 0.6605 0.7071 -0.2525
vn -0.0000 0.7071 -0.7071
vn -0.6547 0.7071 0.2671
vn 0.0000 0.7071 0.7071
vn 0.6606 0.7071 0.2521
vn -0.6690 0.7071 -0.2289
vn -0.6650 0.7071 -0.2403
vn -0.6734 0.7071 -0.2155
vn -0.6776 0.7071 -0.2020
vn -0.6815 0.7071 -0.1884
vn -0.6852 0.7071 -0.1747
vn -0.6885 0.7071 -0.1609
vn -0.6901 0.7071 -0.1540
vn 0.6755 0.7071 -0.2091
vn 0.6771 0.7071 -0.2037
vn 0.6723 0.7071 -0.2192
vn 0.6694 0.7071 -0.2279
vn 0.6667 0.7071 -0.2356
vn 0.6643 0.7071 -0.2424
vn 0.6620 0.7071 -0.2484
vn 0.6610 0.7071 -0.2512
vn 0.6629 0.7071 -0.2461
vn -0.6633 0.7071 -0.2450
vn -0.9416 0.0000 -0.3369
vn 0.0000 0.0000 -1.0000
vn 0.9341 0.0000 -0.3571
vn -0.9259 0.0000 0.3777
vn 0.0000 0.0000 1.0000
vn 0.9343 0.0000 0.3565
vn -0.9461 0.0000 -0.3238
vn -0.9405 0.0000 -0.3398
vn -0.9524 0.0000 -0.3048
vn -0.9583 0.0000 -0.2857
vn -0.9638 0.0000 -0.2665
vn -0.9690 0.0000 -0.2471
vn -0.9738 0.0000 -0.2276
vn -0.9760 0.0000 -0.2178
vn 0.9553 0.0000 -0.2957
vn 0.9576 0.0000 -0.2881
vn 0.9507 0.0000 -0.3100
vn 0.9466 0.0000 -0.3224
vn 0.9429 0.0000 -0.3332
vn 0.9394 0.0000 -0.3428
vn 0.9363 0.0000 -0.3513
vn 0.9348 0.0000 -0.3553
vn 0.9375 0.0000 -0.3481
vn -0.9381 0.0000 -0.3464
vn -0.6658 -0.7071 -0.2382
vn 0.0000 -0.7071 -0.7071
vn 0.6605 -0.7071 -0.2525
vn -0.0000 -0.7071 -0.7071
vn -0.6547 -0.7071 0.2671
vn 0.0000 -0.7071 0.7071
vn 0.6606 -0.7071 0.2521
vn -0.6690 -0.7071 -0.2289
vn -0.6650 -0.7071 -0.2403
vn -0.6734 -0.7071 -0.2155
vn -0.6776 -0.7071 -0.2020
vn -0.6815 -0.7071 -0.1884
vn -0.6852 -0.7071 -0.1747
vn -0.6885 -0.7071 -0.1609
vn -0.6901 -0.7071 -0.1540
vn 0.6755 -0.7071 -0.2091
vn 0.6771 -0.7071 -0.2037
vn 0.6723 -0.7071 -0.2192
vn 0.6694 -0.7071 -0.2279
vn 0.6667 -0.7071 -0.2356
vn 0.6643 -0.7071 -0.2424
vn 0.6620 -0.7071 -0.2484
vn 0.6610 -0.7071 -0.2512
vn 0.6629 -0.7071 -0.2461
vn -0.6633 -0.7071 -0.2450
vn 0.0000 -1.0000 -0.0000
vn 0.0000 1.0000 -0.0000
# 76 vertex normals

g Text001
usemtl wire_086086086
s 2
f 1//1 2//1 3//1 
f 4//1 1//1 3//1 
s 4
f 5//2 1//2 4//2 
f 6//2 5//2 4//2 
s 8
f 7//3 5//3 6//3 
f 8//3 7//3 6//3 
s 16
f 9//4 7//4 8//4 
f 10//2 9//4 8//4 
s 2
f 11//5 9//5 10//5 
f 12//5 11//5 10//5 
s 4
f 13//6 11//6 12//6 
f 14//6 13//6 12//6 
s 8
f 15//7 13//7 14//7 
f 16//7 15//7 14//7 
s 17
f 2//2 15//2 16//2 
f 3//2 2//2 16//2 
s 2
f 17//8 18//9 19//9 
f 20//8 17//8 19//9 
f 21//10 17//8 20//8 
f 22//10 21//10 20//8 
f 23//11 21//10 22//10 
f 24//11 23//11 22//10 
f 25//12 23//11 24//11 
f 26//12 25//12 24//11 
f 27//13 25//12 26//12 
f 28//13 27//13 26//12 
f 29//14 27//13 28//13 
f 30//14 29//14 28//13 
f 31//15 29//14 30//14 
f 32//15 31//15 30//14 
s 4
f 33//16 31//17 32//17 
f 34//16 33//16 32//17 
f 35//18 33//16 34//16 
f 36//18 35//18 34//16 
f 37//19 35//18 36//18 
f 38//19 37//19 36//18 
f 39//20 37//19 38//19 
f 40//20 39//20 38//19 
f 41//21 39//20 40//20 
f 42//21 41//21 40//20 
f 43//22 41//21 42//21 
f 44//22 43//22 42//21 
f 45//23 43//22 44//22 
f 46//23 45//23 44//22 
s 8
f 47//24 45//24 46//24 
f 48//24 47//24 46//24 
s 16
f 49//6 47//6 48//6 
f 50//6 49//6 48//6 
s 3
f 18//9 49//25 50//25 
f 19//9 18//9 50//25 
s 64
f 4//26 3//26 51//26 
f 52//26 4//26 51//26 
s 128
f 6//27 4//27 52//27 
f 53//27 6//27 52//27 
s 256
f 8//28 6//28 53//28 
f 54//28 8//28 53//28 
s 512
f 10//27 8//27 54//27 
f 55//27 10//27 54//27 
s 64
f 12//29 10//29 55//29 
f 56//29 12//29 55//29 
s 128
f 14//30 12//30 56//30 
f 57//30 14//30 56//30 
s 256
f 16//31 14//31 57//31 
f 58//31 16//31 57//31 
s 544
f 3//27 16//27 58//27 
f 51//27 3//27 58//27 
s 64
f 20//32 19//33 59//33 
f 60//32 20//32 59//33 
f 22//34 20//32 60//32 
f 61//34 22//34 60//32 
f 24//35 22//34 61//34 
f 62//35 24//35 61//34 
f 26//36 24//35 62//35 
f 63//36 26//36 62//35 
f 28//37 26//36 63//36 
f 64//37 28//37 63//36 
f 30//38 28//37 64//37 
f 65//38 30//38 64//37 
f 32//39 30//38 65//38 
f 66//39 32//39 65//38 
s 128
f 34//40 32//41 66//41 
f 67//40 34//40 66//41 
f 36//42 34//40 67//40 
f 68//42 36//42 67//40 
f 38//43 36//42 68//42 
f 69//43 38//43 68//42 
f 40//44 38//43 69//43 
f 70//44 40//44 69//43 
f 42//45 40//44 70//44 
f 71//45 42//45 70//44 
f 44//46 42//45 71//45 
f 72//46 44//46 71//45 
f 46//47 44//46 72//46 
f 73//47 46//47 72//46 
s 256
f 48//48 46//48 73//48 
f 74//48 48//48 73//48 
s 512
f 50//30 48//30 74//30 
f 75//30 50//30 74//30 
s 96
f 19//33 50//49 75//49 
f 59//33 19//33 75//49 
s 2
f 52//50 51//50 76//50 
f 77//50 52//50 76//50 
s 4
f 53//51 52//51 77//51 
f 78//51 53//51 77//51 
s 8
f 54//52 53//52 78//52 
f 79//52 54//52 78//52 
s 16
f 55//53 54//51 79//53 
f 80//53 55//53 79//53 
s 2
f 56//54 55//54 80//54 
f 81//54 56//54 80//54 
s 4
f 57//55 56//55 81//55 
f 82//55 57//55 81//55 
s 8
f 58//56 57//56 82//56 
f 83//56 58//56 82//56 
s 17
f 51//51 58//51 83//51 
f 76//51 51//51 83//51 
s 2
f 60//57 59//58 84//58 
f 85//57 60//57 84//58 
f 61//59 60//57 85//57 
f 86//59 61//59 85//57 
f 62//60 61//59 86//59 
f 87//60 62//60 86//59 
f 63//61 62//60 87//60 
f 88//61 63//61 87//60 
f 64//62 63//61 88//61 
f 89//62 64//62 88//61 
f 65//63 64//62 89//62 
f 90//63 65//63 89//62 
f 66//64 65//63 90//63 
f 91//64 66//64 90//63 
s 4
f 67//65 66//66 91//66 
f 92//65 67//65 91//66 
f 68//67 67//65 92//65 
f 93//67 68//67 92//65 
f 69//68 68//67 93//67 
f 94//68 69//68 93//67 
f 70//69 69//68 94//68 
f 95//69 70//69 94//68 
f 71//70 70//69 95//69 
f 96//70 71//70 95//69 
f 72//71 71//70 96//70 
f 97//71 72//71 96//70 
f 73//72 72//71 97//71 
f 98//72 73//72 97//71 
s 8
f 74//73 73//73 98//73 
f 99//73 74//73 98//73 
s 16
f 75//55 74//55 99//55 
f 100//55 75//55 99//55 
s 3
f 59//58 75//74 100//74 
f 84//58 59//58 100//74 
s 1024
f 76//75 91//75 77//75 
f 91//75 90//75 77//75 
f 90//75 89//75 77//75 
f 89//75 88//75 77//75 
f 80//75 79//75 81//75 
f 79//75 78//75 81//75 
f 83//75 82//75 76//75 
f 76//75 82//75 91//75 
f 82//75 81//75 91//75 
f 81//75 78//75 91//75 
f 91//75 78//75 92//75 
f 92//75 78//75 93//75 
f 93//75 78//75 94//75 
f 94//75 78//75 95//75 
f 95//75 78//75 96//75 
f 87//75 86//75 88//75 
f 86//75 85//75 88//75 
f 85//75 84//75 88//75 
f 84//75 100//75 88//75 
f 88//75 100//75 77//75 
f 77//75 100//75 78//75 
f 100//75 99//75 78//75 
f 99//75 98//75 78//75 
f 78//75 98//75 96//75 
f 98//75 97//75 96//75 
f 1//76 31//76 2//76 
f 1//76 29//76 31//76 
f 1//76 27//76 29//76 
f 1//76 25//76 27//76 
f 11//76 7//76 9//76 
f 11//76 5//76 7//76 
f 2//76 13//76 15//76 
f 31//76 13//76 2//76 
f 31//76 11//76 13//76 
f 31//76 5//76 11//76 
f 33//76 5//76 31//76 
f 35//76 5//76 33//76 
f 37//76 5//76 35//76 
f 39//76 5//76 37//76 
f 41//76 5//76 39//76 
f 25//76 21//76 23//76 
f 25//76 17//76 21//76 
f 25//76 18//76 17//76 
f 25//76 49//76 18//76 
f 1//76 49//76 25//76 
f 5//76 49//76 1//76 
f 5//76 47//76 49//76 
f 5//76 45//76 47//76 
f 41//76 45//76 5//76 
f 41//76 43//76 45//76 
# 200 faces

