# 3ds Max Wavefront OBJ Exporter v0.97b - (c)2007 guruware
# File Created: 12.02.2016 14:50:08

mtllib E.mtl

#
# object Text001
#

v  0.2235 0.0000 -0.6410
v  0.2235 0.0000 -0.5650
v  -0.2385 0.0000 -0.6410
v  -0.1535 0.0000 -0.5650
v  -0.2385 0.0000 -0.0000
v  -0.1535 0.0000 -0.3700
v  0.1995 0.0000 -0.3700
v  0.1995 0.0000 -0.2940
v  -0.1535 0.0000 -0.2940
v  -0.1535 0.0000 -0.0760
v  0.2385 0.0000 -0.0000
v  0.2385 0.0000 -0.0760
# 12 vertices

vn 0.0000 -1.0000 -0.0000
# 1 vertex normals

g Text001
usemtl wire_229154215
s 1
f 1//1 2//1 3//1 
f 2//1 4//1 3//1 
f 3//1 4//1 5//1 
f 4//1 6//1 5//1 
f 7//1 8//1 6//1 
f 8//1 9//1 6//1 
f 6//1 9//1 5//1 
f 9//1 10//1 5//1 
f 5//1 10//1 11//1 
f 10//1 12//1 11//1 
# 10 faces

