# 3ds Max Wavefront OBJ Exporter v0.97b - (c)2007 guruware
# File Created: 12.02.2016 14:46:36

mtllib F.mtl

#
# object Text001
#

v  -0.1420 0.0000 -0.3010
v  -0.1420 0.0000 -0.0100
v  -0.1320 0.0100 -0.0000
v  -0.1320 0.0100 -0.2910
v  0.1600 0.0000 -0.3010
v  0.1700 0.0100 -0.2910
v  0.1600 0.0000 -0.3570
v  0.1700 0.0100 -0.3670
v  -0.1420 0.0000 -0.3570
v  -0.1320 0.0100 -0.3670
v  -0.1420 0.0000 -0.5750
v  -0.1320 0.0100 -0.5650
v  0.2070 0.0000 -0.5750
v  0.2170 0.0100 -0.5650
v  0.2070 0.0000 -0.6310
v  0.2170 0.0100 -0.6410
v  -0.2070 0.0000 -0.6310
v  -0.2170 0.0100 -0.6410
v  -0.2070 0.0000 -0.0100
v  -0.2170 0.0100 -0.0000
v  -0.1320 0.1100 -0.0000
v  -0.1320 0.1100 -0.2910
v  0.1700 0.1100 -0.2910
v  0.1700 0.1100 -0.3670
v  -0.1320 0.1100 -0.3670
v  -0.1320 0.1100 -0.5650
v  0.2170 0.1100 -0.5650
v  0.2170 0.1100 -0.6410
v  -0.2170 0.1100 -0.6410
v  -0.2170 0.1100 -0.0000
v  -0.1420 0.1200 -0.0100
v  -0.1420 0.1200 -0.3010
v  0.1600 0.1200 -0.3010
v  0.1600 0.1200 -0.3570
v  -0.1420 0.1200 -0.3570
v  -0.1420 0.1200 -0.5750
v  0.2070 0.1200 -0.5750
v  0.2070 0.1200 -0.6310
v  -0.2070 0.1200 -0.6310
v  -0.2070 0.1200 -0.0100
# 40 vertices

vn -0.7071 0.7071 -0.0000
vn 0.0000 0.7071 -0.7071
vn 0.0000 0.7071 0.7071
vn 0.7071 0.7071 -0.0000
vn -1.0000 0.0000 -0.0000
vn 0.0000 0.0000 -1.0000
vn 0.0000 0.0000 1.0000
vn 1.0000 0.0000 -0.0000
vn -0.7071 -0.7071 -0.0000
vn 0.0000 -0.7071 -0.7071
vn 0.0000 -0.7071 0.7071
vn 0.7071 -0.7071 -0.0000
vn 0.0000 -1.0000 -0.0000
vn 0.0000 1.0000 -0.0000
# 14 vertex normals

g Text001
usemtl wire_088199225
s 2
f 1//1 2//1 3//1 
f 4//1 1//1 3//1 
s 4
f 5//2 1//2 4//2 
f 6//2 5//2 4//2 
s 8
f 7//1 5//1 6//1 
f 8//1 7//1 6//1 
s 16
f 9//3 7//3 8//3 
f 10//3 9//3 8//3 
s 2
f 11//1 9//1 10//1 
f 12//1 11//1 10//1 
s 4
f 13//2 11//2 12//2 
f 14//2 13//2 12//2 
s 8
f 15//1 13//1 14//1 
f 16//1 15//1 14//1 
s 16
f 17//3 15//3 16//3 
f 18//3 17//3 16//3 
s 2
f 19//4 17//4 18//4 
f 20//4 19//4 18//4 
s 5
f 2//2 19//2 20//2 
f 3//2 2//2 20//2 
s 64
f 4//5 3//5 21//5 
f 22//5 4//5 21//5 
s 128
f 6//6 4//6 22//6 
f 23//6 6//6 22//6 
s 256
f 8//5 6//5 23//5 
f 24//5 8//5 23//5 
s 512
f 10//7 8//7 24//7 
f 25//7 10//7 24//7 
s 64
f 12//5 10//5 25//5 
f 26//5 12//5 25//5 
s 128
f 14//6 12//6 26//6 
f 27//6 14//6 26//6 
s 256
f 16//5 14//5 27//5 
f 28//5 16//5 27//5 
s 512
f 18//7 16//7 28//7 
f 29//7 18//7 28//7 
s 64
f 20//8 18//8 29//8 
f 30//8 20//8 29//8 
s 160
f 3//6 20//6 30//6 
f 21//6 3//6 30//6 
s 2
f 22//9 21//9 31//9 
f 32//9 22//9 31//9 
s 4
f 23//10 22//10 32//10 
f 33//10 23//10 32//10 
s 8
f 24//9 23//9 33//9 
f 34//9 24//9 33//9 
s 16
f 25//11 24//11 34//11 
f 35//11 25//11 34//11 
s 2
f 26//9 25//9 35//9 
f 36//9 26//9 35//9 
s 4
f 27//10 26//10 36//10 
f 37//10 27//10 36//10 
s 8
f 28//9 27//9 37//9 
f 38//9 28//9 37//9 
s 16
f 29//11 28//11 38//11 
f 39//11 29//11 38//11 
s 2
f 30//12 29//12 39//12 
f 40//12 30//12 39//12 
s 5
f 21//10 30//10 40//10 
f 31//10 21//10 40//10 
s 1024
f 40//13 39//13 31//13 
f 31//13 39//13 32//13 
f 38//13 37//13 39//13 
f 37//13 36//13 39//13 
f 34//13 33//13 35//13 
f 33//13 32//13 35//13 
f 32//13 39//13 35//13 
f 35//13 39//13 36//13 
f 2//14 17//14 19//14 
f 1//14 17//14 2//14 
f 17//14 13//14 15//14 
f 17//14 11//14 13//14 
f 9//14 5//14 7//14 
f 9//14 1//14 5//14 
f 9//14 17//14 1//14 
f 11//14 17//14 9//14 
# 76 faces

