# 3ds Max Wavefront OBJ Exporter v0.97b - (c)2007 guruware
# File Created: 03.02.2016 14:20:28

mtllib H.mtl

#
# object Text001
#

v  -0.1760 0.0000 -0.0100
v  -0.1760 0.0000 -0.3120
v  -0.1660 0.0100 -0.0000
v  -0.1660 0.0100 -0.3020
v  0.1760 0.0000 -0.3120
v  0.1660 0.0100 -0.3020
v  0.1760 0.0000 -0.0100
v  0.1660 0.0100 -0.0000
v  0.2410 0.0000 -0.0100
v  0.2510 0.0100 -0.0000
v  0.2410 0.0000 -0.6310
v  0.2510 0.0100 -0.6410
v  0.1760 0.0000 -0.6310
v  0.1660 0.0100 -0.6410
v  0.1760 0.0000 -0.3680
v  0.1660 0.0100 -0.3780
v  -0.1760 0.0000 -0.3680
v  -0.1660 0.0100 -0.3780
v  -0.1760 0.0000 -0.6310
v  -0.1660 0.0100 -0.6410
v  -0.2410 0.0000 -0.6310
v  -0.2510 0.0100 -0.6410
v  -0.2410 0.0000 -0.0100
v  -0.2510 0.0100 -0.0000
v  -0.1660 0.1100 -0.0000
v  -0.1660 0.1100 -0.3020
v  0.1660 0.1100 -0.3020
v  0.1660 0.1100 -0.0000
v  0.2510 0.1100 -0.0000
v  0.2510 0.1100 -0.6410
v  0.1660 0.1100 -0.6410
v  0.1660 0.1100 -0.3780
v  -0.1660 0.1100 -0.3780
v  -0.1660 0.1100 -0.6410
v  -0.2510 0.1100 -0.6410
v  -0.2510 0.1100 -0.0000
v  -0.1760 0.1200 -0.0100
v  -0.1760 0.1200 -0.3120
v  0.1760 0.1200 -0.3120
v  0.1760 0.1200 -0.0100
v  0.2410 0.1200 -0.0100
v  0.2410 0.1200 -0.6310
v  0.1760 0.1200 -0.6310
v  0.1760 0.1200 -0.3680
v  -0.1760 0.1200 -0.3680
v  -0.1760 0.1200 -0.6310
v  -0.2410 0.1200 -0.6310
v  -0.2410 0.1200 -0.0100
# 48 vertices

vn 0.7071 -0.7071 -0.0000
vn 0.0000 -0.7071 0.7071
vn -0.7071 -0.7071 -0.0000
vn 0.0000 -0.7071 -0.7071
vn 1.0000 0.0000 -0.0000
vn 0.0000 0.0000 1.0000
vn -1.0000 0.0000 -0.0000
vn 0.0000 0.0000 -1.0000
vn 0.7071 0.7071 -0.0000
vn 0.0000 0.7071 0.7071
vn -0.7071 0.7071 -0.0000
vn 0.0000 0.7071 -0.7071
vn 0.0000 1.0000 -0.0000
vn 0.0000 -1.0000 -0.0000
# 14 vertex normals

g Text001
usemtl wire_198225087
s 2
f 1//1 2//1 3//1 
f 2//1 4//1 3//1 
s 4
f 2//2 5//2 4//2 
f 5//2 6//2 4//2 
s 8
f 5//3 7//3 6//3 
f 7//3 8//3 6//3 
s 16
f 7//2 9//2 8//2 
f 9//2 10//2 8//2 
s 2
f 9//1 11//1 10//1 
f 11//1 12//1 10//1 
s 4
f 11//4 13//4 12//4 
f 13//4 14//4 12//4 
s 8
f 13//3 15//3 14//3 
f 15//3 16//3 14//3 
s 16
f 15//4 17//4 16//4 
f 17//4 18//4 16//4 
s 2
f 17//1 19//1 18//1 
f 19//1 20//1 18//1 
s 4
f 19//4 21//4 20//4 
f 21//4 22//4 20//4 
s 8
f 21//3 23//3 22//3 
f 23//3 24//3 22//3 
s 17
f 23//2 1//2 24//2 
f 1//2 3//2 24//2 
s 64
f 3//5 4//5 25//5 
f 4//5 26//5 25//5 
s 128
f 4//6 6//6 26//6 
f 6//6 27//6 26//6 
s 256
f 6//7 8//7 27//7 
f 8//7 28//7 27//7 
s 512
f 8//6 10//6 28//6 
f 10//6 29//6 28//6 
s 64
f 10//5 12//5 29//5 
f 12//5 30//5 29//5 
s 128
f 12//8 14//8 30//8 
f 14//8 31//8 30//8 
s 256
f 14//7 16//7 31//7 
f 16//7 32//7 31//7 
s 512
f 16//8 18//8 32//8 
f 18//8 33//8 32//8 
s 64
f 18//5 20//5 33//5 
f 20//5 34//5 33//5 
s 128
f 20//8 22//8 34//8 
f 22//8 35//8 34//8 
s 256
f 22//7 24//7 35//7 
f 24//7 36//7 35//7 
s 544
f 24//6 3//6 36//6 
f 3//6 25//6 36//6 
s 2
f 25//9 26//9 37//9 
f 26//9 38//9 37//9 
s 4
f 26//10 27//10 38//10 
f 27//10 39//10 38//10 
s 8
f 27//11 28//11 39//11 
f 28//11 40//11 39//11 
s 16
f 28//10 29//10 40//10 
f 29//10 41//10 40//10 
s 2
f 29//9 30//9 41//9 
f 30//9 42//9 41//9 
s 4
f 30//12 31//12 42//12 
f 31//12 43//12 42//12 
s 8
f 31//11 32//11 43//11 
f 32//11 44//11 43//11 
s 16
f 32//12 33//12 44//12 
f 33//12 45//12 44//12 
s 2
f 33//9 34//9 45//9 
f 34//9 46//9 45//9 
s 4
f 34//12 35//12 46//12 
f 35//12 47//12 46//12 
s 8
f 35//11 36//11 47//11 
f 36//11 48//11 47//11 
s 17
f 36//10 25//10 48//10 
f 25//10 37//10 48//10 
s 1024
f 47//13 48//13 37//13 
f 47//13 37//13 38//13 
f 45//13 46//13 47//13 
f 45//13 47//13 38//13 
f 44//13 45//13 38//13 
f 44//13 38//13 39//13 
f 42//13 43//13 44//13 
f 41//13 42//13 44//13 
f 41//13 44//13 39//13 
f 41//13 39//13 40//13 
f 21//14 1//14 23//14 
f 21//14 2//14 1//14 
f 17//14 21//14 19//14 
f 17//14 2//14 21//14 
f 15//14 2//14 17//14 
f 15//14 5//14 2//14 
f 11//14 15//14 13//14 
f 9//14 15//14 11//14 
f 9//14 5//14 15//14 
f 9//14 7//14 5//14 
# 92 faces

