# 3ds Max Wavefront OBJ Exporter v0.97b - (c)2007 guruware
# File Created: 12.02.2016 14:45:22

mtllib I.mtl

#
# object Text001
#

v  0.0325 0.0000 -0.6310
v  0.0325 0.0000 -0.0100
v  0.0425 0.0100 -0.0000
v  0.0425 0.0100 -0.6410
v  -0.0325 0.0000 -0.6310
v  -0.0425 0.0100 -0.6410
v  -0.0325 0.0000 -0.0100
v  -0.0425 0.0100 -0.0000
v  0.0425 0.1100 -0.0000
v  0.0425 0.1100 -0.6410
v  -0.0425 0.1100 -0.6410
v  -0.0425 0.1100 -0.0000
v  0.0325 0.1200 -0.0100
v  0.0325 0.1200 -0.6310
v  -0.0325 0.1200 -0.6310
v  -0.0325 0.1200 -0.0100
# 16 vertices

vn -0.7071 0.7071 -0.0000
vn 0.0000 0.7071 0.7071
vn 0.7071 0.7071 -0.0000
vn 0.0000 0.7071 -0.7071
vn -1.0000 0.0000 -0.0000
vn 0.0000 0.0000 1.0000
vn 1.0000 0.0000 -0.0000
vn 0.0000 0.0000 -1.0000
vn -0.7071 -0.7071 -0.0000
vn 0.0000 -0.7071 0.7071
vn 0.7071 -0.7071 -0.0000
vn 0.0000 -0.7071 -0.7071
vn 0.0000 -1.0000 -0.0000
vn 0.0000 1.0000 -0.0000
# 14 vertex normals

g Text001
usemtl wire_135006006
s 2
f 1//1 2//1 3//1 
f 4//1 1//1 3//1 
s 4
f 5//2 1//2 4//2 
f 6//2 5//2 4//2 
s 8
f 7//3 5//3 6//3 
f 8//3 7//3 6//3 
s 17
f 2//4 7//4 8//4 
f 3//4 2//4 8//4 
s 64
f 4//5 3//5 9//5 
f 10//5 4//5 9//5 
s 128
f 6//6 4//6 10//6 
f 11//6 6//6 10//6 
s 256
f 8//7 6//7 11//7 
f 12//7 8//7 11//7 
s 544
f 3//8 8//8 12//8 
f 9//8 3//8 12//8 
s 2
f 10//9 9//9 13//9 
f 14//9 10//9 13//9 
s 4
f 11//10 10//10 14//10 
f 15//10 11//10 14//10 
s 8
f 12//11 11//11 15//11 
f 16//11 12//11 15//11 
s 17
f 9//12 12//12 16//12 
f 13//12 9//12 16//12 
s 1024
f 16//13 15//13 13//13 
f 13//13 15//13 14//13 
f 2//14 5//14 7//14 
f 1//14 5//14 2//14 
# 28 faces

