# 3ds Max Wavefront OBJ Exporter v0.97b - (c)2007 guruware
# File Created: 12.02.2016 14:44:43

mtllib K.mtl

#
# object Text001
#

v  -0.1900 0.0000 -0.2262
v  -0.1900 0.0000 -0.0100
v  -0.1800 0.0100 -0.0000
v  -0.1800 0.0100 -0.2220
v  -0.0741 0.0000 -0.3383
v  -0.0756 0.0100 -0.3230
v  0.1582 0.0000 -0.0100
v  0.1530 0.0100 -0.0000
v  0.2452 0.0000 -0.0100
v  0.2650 0.0100 -0.0000
v  -0.0293 0.0000 -0.3818
v  -0.0160 0.0100 -0.3807
v  0.2283 0.0000 -0.6310
v  0.2530 0.0100 -0.6410
v  0.1423 0.0000 -0.6310
v  0.1381 0.0100 -0.6410
v  -0.1900 0.0000 -0.2993
v  -0.1800 0.0100 -0.3234
v  -0.1900 0.0000 -0.6310
v  -0.1800 0.0100 -0.6410
v  -0.2550 0.0000 -0.6310
v  -0.2650 0.0100 -0.6410
v  -0.2550 0.0000 -0.0100
v  -0.2650 0.0100 -0.0000
v  -0.1800 0.1100 -0.0000
v  -0.1800 0.1100 -0.2220
v  -0.0756 0.1100 -0.3230
v  0.1530 0.1100 -0.0000
v  0.2650 0.1100 -0.0000
v  -0.0160 0.1100 -0.3807
v  0.2530 0.1100 -0.6410
v  0.1381 0.1100 -0.6410
v  -0.1800 0.1100 -0.3234
v  -0.1800 0.1100 -0.6410
v  -0.2650 0.1100 -0.6410
v  -0.2650 0.1100 -0.0000
v  -0.1900 0.1200 -0.0100
v  -0.1900 0.1200 -0.2262
v  -0.0741 0.1200 -0.3383
v  0.1582 0.1200 -0.0100
v  0.2452 0.1200 -0.0100
v  -0.0293 0.1200 -0.3818
v  0.2283 0.1200 -0.6310
v  0.1423 0.1200 -0.6310
v  -0.1900 0.1200 -0.2993
v  -0.1900 0.1200 -0.6310
v  -0.2550 0.1200 -0.6310
v  -0.2550 0.1200 -0.0100
# 48 vertices

vn -0.7071 0.7071 -0.0000
vn -0.4917 0.7071 -0.5082
vn 0.5772 0.7071 -0.4084
vn 0.0000 0.7071 -0.7071
vn -0.5689 0.7071 0.4200
vn -0.4917 0.7071 -0.5081
vn 0.0000 0.7071 0.7071
vn 0.4996 0.7071 0.5004
vn 0.7071 0.7071 -0.0000
vn -1.0000 0.0000 -0.0000
vn -0.6953 0.0000 -0.7187
vn 0.8163 0.0000 -0.5776
vn 0.0000 0.0000 -1.0000
vn -0.8045 0.0000 0.5939
vn -0.6954 0.0000 -0.7186
vn 0.0000 0.0000 1.0000
vn 0.7065 0.0000 0.7077
vn 1.0000 0.0000 -0.0000
vn -0.7071 -0.7071 -0.0000
vn -0.4917 -0.7071 -0.5082
vn 0.5772 -0.7071 -0.4084
vn 0.0000 -0.7071 -0.7071
vn -0.5689 -0.7071 0.4200
vn -0.4917 -0.7071 -0.5081
vn 0.0000 -0.7071 0.7071
vn 0.4996 -0.7071 0.5004
vn 0.7071 -0.7071 -0.0000
vn 0.0000 -1.0000 -0.0000
vn 0.0000 1.0000 -0.0000
# 29 vertex normals

g Text001
usemtl wire_148177027
s 2
f 1//1 2//1 3//1 
f 4//1 1//1 3//1 
s 4
f 5//2 1//2 4//2 
f 6//2 5//2 4//2 
s 8
f 7//3 5//3 6//3 
f 8//3 7//3 6//3 
s 16
f 9//4 7//4 8//4 
f 10//4 9//4 8//4 
s 2
f 11//5 9//5 10//5 
f 12//5 11//5 10//5 
s 4
f 13//6 11//6 12//6 
f 14//6 13//6 12//6 
s 8
f 15//7 13//7 14//7 
f 16//7 15//7 14//7 
s 16
f 17//8 15//8 16//8 
f 18//8 17//8 16//8 
s 2
f 19//1 17//1 18//1 
f 20//1 19//1 18//1 
s 4
f 21//7 19//7 20//7 
f 22//7 21//7 20//7 
s 8
f 23//9 21//9 22//9 
f 24//9 23//9 22//9 
s 17
f 2//4 23//4 24//4 
f 3//4 2//4 24//4 
s 64
f 4//10 3//10 25//10 
f 26//10 4//10 25//10 
s 128
f 6//11 4//11 26//11 
f 27//11 6//11 26//11 
s 256
f 8//12 6//12 27//12 
f 28//12 8//12 27//12 
s 512
f 10//13 8//13 28//13 
f 29//13 10//13 28//13 
s 64
f 12//14 10//14 29//14 
f 30//14 12//14 29//14 
s 128
f 14//15 12//15 30//15 
f 31//15 14//15 30//15 
s 256
f 16//16 14//16 31//16 
f 32//16 16//16 31//16 
s 512
f 18//17 16//17 32//17 
f 33//17 18//17 32//17 
s 64
f 20//10 18//10 33//10 
f 34//10 20//10 33//10 
s 128
f 22//16 20//16 34//16 
f 35//16 22//16 34//16 
s 256
f 24//18 22//18 35//18 
f 36//18 24//18 35//18 
s 544
f 3//13 24//13 36//13 
f 25//13 3//13 36//13 
s 2
f 26//19 25//19 37//19 
f 38//19 26//19 37//19 
s 4
f 27//20 26//20 38//20 
f 39//20 27//20 38//20 
s 8
f 28//21 27//21 39//21 
f 40//21 28//21 39//21 
s 16
f 29//22 28//22 40//22 
f 41//22 29//22 40//22 
s 2
f 30//23 29//23 41//23 
f 42//23 30//23 41//23 
s 4
f 31//24 30//24 42//24 
f 43//24 31//24 42//24 
s 8
f 32//25 31//25 43//25 
f 44//25 32//25 43//25 
s 16
f 33//26 32//26 44//26 
f 45//26 33//26 44//26 
s 2
f 34//19 33//19 45//19 
f 46//19 34//19 45//19 
s 4
f 35//25 34//25 46//25 
f 47//25 35//25 46//25 
s 8
f 36//27 35//27 47//27 
f 48//27 36//27 47//27 
s 17
f 25//22 36//22 48//22 
f 37//22 25//22 48//22 
s 1024
f 43//28 42//28 44//28 
f 44//28 42//28 45//28 
f 41//28 40//28 42//28 
f 40//28 39//28 42//28 
f 42//28 39//28 45//28 
f 39//28 38//28 45//28 
f 48//28 47//28 37//28 
f 37//28 47//28 38//28 
f 38//28 47//28 45//28 
f 45//28 47//28 46//28 
f 15//29 11//29 13//29 
f 17//29 11//29 15//29 
f 11//29 7//29 9//29 
f 11//29 5//29 7//29 
f 17//29 5//29 11//29 
f 17//29 1//29 5//29 
f 2//29 21//29 23//29 
f 1//29 21//29 2//29 
f 17//29 21//29 1//29 
f 19//29 21//29 17//29 
# 92 faces

