# 3ds Max Wavefront OBJ Exporter v0.97b - (c)2007 guruware
# File Created: 12.02.2016 14:44:22

mtllib L.mtl

#
# object Text001
#

v  0.1900 0.0000 -0.0660
v  0.1900 0.0000 -0.0100
v  0.2000 0.0100 -0.0000
v  0.2000 0.0100 -0.0760
v  -0.1250 0.0000 -0.0660
v  -0.1150 0.0100 -0.0760
v  -0.1250 0.0000 -0.6310
v  -0.1150 0.0100 -0.6410
v  -0.1900 0.0000 -0.6310
v  -0.2000 0.0100 -0.6410
v  -0.1900 0.0000 -0.0100
v  -0.2000 0.0100 -0.0000
v  0.2000 0.1100 -0.0000
v  0.2000 0.1100 -0.0760
v  -0.1150 0.1100 -0.0760
v  -0.1150 0.1100 -0.6410
v  -0.2000 0.1100 -0.6410
v  -0.2000 0.1100 -0.0000
v  0.1900 0.1200 -0.0100
v  0.1900 0.1200 -0.0660
v  -0.1250 0.1200 -0.0660
v  -0.1250 0.1200 -0.6310
v  -0.1900 0.1200 -0.6310
v  -0.1900 0.1200 -0.0100
# 24 vertices

vn -0.7071 0.7071 -0.0000
vn 0.0000 0.7071 0.7071
vn 0.7071 0.7071 -0.0000
vn 0.0000 0.7071 -0.7071
vn -1.0000 0.0000 -0.0000
vn 0.0000 0.0000 1.0000
vn 1.0000 0.0000 -0.0000
vn 0.0000 0.0000 -1.0000
vn -0.7071 -0.7071 -0.0000
vn 0.0000 -0.7071 0.7071
vn 0.7071 -0.7071 -0.0000
vn 0.0000 -0.7071 -0.7071
vn 0.0000 -1.0000 -0.0000
vn 0.0000 1.0000 -0.0000
# 14 vertex normals

g Text001
usemtl wire_184155229
s 2
f 1//1 2//1 3//1 
f 4//1 1//1 3//1 
s 4
f 5//2 1//2 4//2 
f 6//2 5//2 4//2 
s 8
f 7//1 5//1 6//1 
f 8//1 7//1 6//1 
s 16
f 9//2 7//2 8//2 
f 10//2 9//2 8//2 
s 2
f 11//3 9//3 10//3 
f 12//3 11//3 10//3 
s 5
f 2//4 11//4 12//4 
f 3//4 2//4 12//4 
s 64
f 4//5 3//5 13//5 
f 14//5 4//5 13//5 
s 128
f 6//6 4//6 14//6 
f 15//6 6//6 14//6 
s 256
f 8//5 6//5 15//5 
f 16//5 8//5 15//5 
s 512
f 10//6 8//6 16//6 
f 17//6 10//6 16//6 
s 64
f 12//7 10//7 17//7 
f 18//7 12//7 17//7 
s 160
f 3//8 12//8 18//8 
f 13//8 3//8 18//8 
s 2
f 14//9 13//9 19//9 
f 20//9 14//9 19//9 
s 4
f 15//10 14//10 20//10 
f 21//10 15//10 20//10 
s 8
f 16//9 15//9 21//9 
f 22//9 16//9 21//9 
s 16
f 17//10 16//10 22//10 
f 23//10 17//10 22//10 
s 2
f 18//11 17//11 23//11 
f 24//11 18//11 23//11 
s 5
f 13//12 18//12 24//12 
f 19//12 13//12 24//12 
s 1024
f 23//13 22//13 24//13 
f 22//13 21//13 24//13 
f 24//13 21//13 19//13 
f 21//13 20//13 19//13 
f 11//14 7//14 9//14 
f 11//14 5//14 7//14 
f 2//14 5//14 11//14 
f 2//14 1//14 5//14 
# 44 faces

