# 3ds Max Wavefront OBJ Exporter v0.97b - (c)2007 guruware
# File Created: 12.02.2016 14:43:44

mtllib M.mtl

#
# object Text001
#

v  -0.2345 0.0000 -0.6065
v  -0.2345 0.0000 -0.0100
v  -0.2245 0.0100 -0.0000
v  -0.2245 0.0100 -0.5460
v  -0.0317 0.0000 -0.0100
v  -0.0388 0.0100 -0.0000
v  0.0304 0.0000 -0.0100
v  0.0375 0.0100 -0.0000
v  0.2345 0.0000 -0.5961
v  0.2245 0.0100 -0.5370
v  0.2345 0.0000 -0.0100
v  0.2245 0.0100 -0.0000
v  0.2965 0.0000 -0.0100
v  0.3065 0.0100 -0.0000
v  0.2965 0.0000 -0.6310
v  0.3065 0.0100 -0.6410
v  0.1990 0.0000 -0.6310
v  0.1919 0.0100 -0.6410
v  0.0476 0.0000 -0.1920
v  0.0382 0.0100 -0.1952
v  0.0039 0.0000 -0.0605
v  0.0040 0.0100 -0.0925
v  -0.0363 0.0000 -0.1843
v  -0.0268 0.0100 -0.1874
v  -0.1866 0.0000 -0.6310
v  -0.1795 0.0100 -0.6410
v  -0.2965 0.0000 -0.6310
v  -0.3065 0.0100 -0.6410
v  -0.2965 0.0000 -0.0100
v  -0.3065 0.0100 -0.0000
v  -0.2245 0.1100 -0.0000
v  -0.2245 0.1100 -0.5460
v  -0.0388 0.1100 -0.0000
v  0.0375 0.1100 -0.0000
v  0.2245 0.1100 -0.5370
v  0.2245 0.1100 -0.0000
v  0.3065 0.1100 -0.0000
v  0.3065 0.1100 -0.6410
v  0.1919 0.1100 -0.6410
v  0.0382 0.1100 -0.1952
v  0.0040 0.1100 -0.0925
v  -0.0268 0.1100 -0.1874
v  -0.1795 0.1100 -0.6410
v  -0.3065 0.1100 -0.6410
v  -0.3065 0.1100 -0.0000
v  -0.2345 0.1200 -0.0100
v  -0.2345 0.1200 -0.6065
v  -0.0317 0.1200 -0.0100
v  0.0304 0.1200 -0.0100
v  0.2345 0.1200 -0.5961
v  0.2345 0.1200 -0.0100
v  0.2965 0.1200 -0.0100
v  0.2965 0.1200 -0.6310
v  0.1990 0.1200 -0.6310
v  0.0476 0.1200 -0.1920
v  0.0039 0.1200 -0.0605
v  -0.0363 0.1200 -0.1843
v  -0.1866 0.1200 -0.6310
v  -0.2965 0.1200 -0.6310
v  -0.2965 0.1200 -0.0100
# 60 vertices

vn -0.7071 0.7071 -0.0000
vn 0.6695 0.7071 -0.2277
vn 0.0000 0.7071 -0.7071
vn -0.6678 0.7071 -0.2325
vn 0.7071 0.7071 -0.0000
vn 0.0000 0.7071 0.7071
vn 0.6685 0.7071 0.2305
vn 0.6710 0.7071 0.2231
vn -0.6725 0.7071 0.2184
vn -0.6702 0.7071 0.2255
vn -1.0000 0.0000 -0.0000
vn 0.9467 0.0000 -0.3220
vn 0.0000 0.0000 -1.0000
vn -0.9444 0.0000 -0.3288
vn 1.0000 0.0000 -0.0000
vn 0.0000 0.0000 1.0000
vn 0.9454 0.0000 0.3260
vn 0.9489 0.0000 0.3156
vn -0.9511 0.0000 0.3088
vn -0.9478 0.0000 0.3190
vn -0.7071 -0.7071 -0.0000
vn 0.6695 -0.7071 -0.2277
vn 0.0000 -0.7071 -0.7071
vn -0.6678 -0.7071 -0.2325
vn 0.7071 -0.7071 -0.0000
vn 0.0000 -0.7071 0.7071
vn 0.6685 -0.7071 0.2305
vn 0.6710 -0.7071 0.2231
vn -0.6725 -0.7071 0.2184
vn -0.6702 -0.7071 0.2255
vn 0.0000 -1.0000 -0.0000
vn 0.0000 1.0000 -0.0000
# 32 vertex normals

g Text001
usemtl wire_184155229
s 2
f 1//1 2//1 3//1 
f 4//1 1//1 3//1 
s 4
f 5//2 1//2 4//2 
f 6//2 5//2 4//2 
s 8
f 7//3 5//3 6//3 
f 8//3 7//3 6//3 
s 16
f 9//4 7//4 8//4 
f 10//4 9//4 8//4 
s 2
f 11//5 9//5 10//5 
f 12//5 11//5 10//5 
s 4
f 13//3 11//3 12//3 
f 14//3 13//3 12//3 
s 8
f 15//1 13//1 14//1 
f 16//1 15//1 14//1 
s 16
f 17//6 15//6 16//6 
f 18//6 17//6 16//6 
s 2
f 19//7 17//7 18//7 
f 20//7 19//7 18//7 
s 4
f 21//8 19//8 20//8 
f 22//8 21//8 20//8 
s 8
f 23//9 21//9 22//9 
f 24//9 23//9 22//9 
s 16
f 25//10 23//10 24//10 
f 26//10 25//10 24//10 
s 2
f 27//6 25//6 26//6 
f 28//6 27//6 26//6 
s 4
f 29//5 27//5 28//5 
f 30//5 29//5 28//5 
s 9
f 2//3 29//3 30//3 
f 3//3 2//3 30//3 
s 64
f 4//11 3//11 31//11 
f 32//11 4//11 31//11 
s 128
f 6//12 4//12 32//12 
f 33//12 6//12 32//12 
s 256
f 8//13 6//13 33//13 
f 34//13 8//13 33//13 
s 512
f 10//14 8//14 34//14 
f 35//14 10//14 34//14 
s 64
f 12//15 10//15 35//15 
f 36//15 12//15 35//15 
s 128
f 14//13 12//13 36//13 
f 37//13 14//13 36//13 
s 256
f 16//11 14//11 37//11 
f 38//11 16//11 37//11 
s 512
f 18//16 16//16 38//16 
f 39//16 18//16 38//16 
s 64
f 20//17 18//17 39//17 
f 40//17 20//17 39//17 
s 128
f 22//18 20//18 40//18 
f 41//18 22//18 40//18 
s 256
f 24//19 22//19 41//19 
f 42//19 24//19 41//19 
s 512
f 26//20 24//20 42//20 
f 43//20 26//20 42//20 
s 64
f 28//16 26//16 43//16 
f 44//16 28//16 43//16 
s 128
f 30//15 28//15 44//15 
f 45//15 30//15 44//15 
s 288
f 3//13 30//13 45//13 
f 31//13 3//13 45//13 
s 2
f 32//21 31//21 46//21 
f 47//21 32//21 46//21 
s 4
f 33//22 32//22 47//22 
f 48//22 33//22 47//22 
s 8
f 34//23 33//23 48//23 
f 49//23 34//23 48//23 
s 16
f 35//24 34//24 49//24 
f 50//24 35//24 49//24 
s 2
f 36//25 35//25 50//25 
f 51//25 36//25 50//25 
s 4
f 37//23 36//23 51//23 
f 52//23 37//23 51//23 
s 8
f 38//21 37//21 52//21 
f 53//21 38//21 52//21 
s 16
f 39//26 38//26 53//26 
f 54//26 39//26 53//26 
s 2
f 40//27 39//27 54//27 
f 55//27 40//27 54//27 
s 4
f 41//28 40//28 55//28 
f 56//28 41//28 55//28 
s 8
f 42//29 41//29 56//29 
f 57//29 42//29 56//29 
s 16
f 43//30 42//30 57//30 
f 58//30 43//30 57//30 
s 2
f 44//26 43//26 58//26 
f 59//26 44//26 58//26 
s 4
f 45//25 44//25 59//25 
f 60//25 45//25 59//25 
s 9
f 31//23 45//23 60//23 
f 46//23 31//23 60//23 
s 1024
f 60//31 59//31 46//31 
f 46//31 59//31 47//31 
f 59//31 58//31 47//31 
f 58//31 57//31 47//31 
f 47//31 57//31 48//31 
f 57//31 56//31 48//31 
f 48//31 56//31 49//31 
f 49//31 56//31 50//31 
f 56//31 55//31 50//31 
f 55//31 54//31 50//31 
f 54//31 53//31 50//31 
f 53//31 52//31 50//31 
f 50//31 52//31 51//31 
f 2//32 27//32 29//32 
f 1//32 27//32 2//32 
f 1//32 25//32 27//32 
f 1//32 23//32 25//32 
f 5//32 23//32 1//32 
f 5//32 21//32 23//32 
f 7//32 21//32 5//32 
f 9//32 21//32 7//32 
f 9//32 19//32 21//32 
f 9//32 17//32 19//32 
f 9//32 15//32 17//32 
f 9//32 13//32 15//32 
f 11//32 13//32 9//32 
# 116 faces

