# 3ds Max Wavefront OBJ Exporter v0.97b - (c)2007 guruware
# File Created: 03.02.2016 14:26:02

mtllib N.mtl

#
# object Text001
#

v  -0.1820 0.0000 -0.0100
v  -0.1820 0.0000 -0.5366
v  -0.1720 0.0100 -0.0000
v  -0.1720 0.0100 -0.5038
v  0.1716 0.0000 -0.0100
v  0.1663 0.0100 -0.0000
v  0.2430 0.0000 -0.0100
v  0.2530 0.0100 -0.0000
v  0.2430 0.0000 -0.6310
v  0.2530 0.0100 -0.6410
v  0.1820 0.0000 -0.6310
v  0.1720 0.0100 -0.6410
v  0.1820 0.0000 -0.1043
v  0.1720 0.0100 -0.1372
v  -0.1716 0.0000 -0.6310
v  -0.1663 0.0100 -0.6410
v  -0.2430 0.0000 -0.6310
v  -0.2530 0.0100 -0.6410
v  -0.2430 0.0000 -0.0100
v  -0.2530 0.0100 -0.0000
v  -0.1720 0.1100 -0.0000
v  -0.1720 0.1100 -0.5038
v  0.1663 0.1100 -0.0000
v  0.2530 0.1100 -0.0000
v  0.2530 0.1100 -0.6410
v  0.1720 0.1100 -0.6410
v  0.1720 0.1100 -0.1372
v  -0.1663 0.1100 -0.6410
v  -0.2530 0.1100 -0.6410
v  -0.2530 0.1100 -0.0000
v  -0.1820 0.1200 -0.0100
v  -0.1820 0.1200 -0.5366
v  0.1716 0.1200 -0.0100
v  0.2430 0.1200 -0.0100
v  0.2430 0.1200 -0.6310
v  0.1820 0.1200 -0.6310
v  0.1820 0.1200 -0.1043
v  -0.1716 0.1200 -0.6310
v  -0.2430 0.1200 -0.6310
v  -0.2430 0.1200 -0.0100
# 40 vertices

vn 0.7071 -0.7071 -0.0000
vn -0.5871 -0.7071 0.3942
vn 0.0000 -0.7071 0.7071
vn 0.0000 -0.7071 -0.7071
vn -0.7071 -0.7071 -0.0000
vn 0.5871 -0.7071 -0.3942
vn 1.0000 0.0000 -0.0000
vn -0.8302 0.0000 0.5574
vn 0.0000 0.0000 1.0000
vn 0.0000 0.0000 -1.0000
vn -1.0000 0.0000 -0.0000
vn 0.8302 0.0000 -0.5574
vn 0.7071 0.7071 -0.0000
vn -0.5871 0.7071 0.3942
vn 0.0000 0.7071 0.7071
vn 0.0000 0.7071 -0.7071
vn -0.7071 0.7071 -0.0000
vn 0.5871 0.7071 -0.3942
vn 0.0000 1.0000 -0.0000
vn 0.0000 -1.0000 -0.0000
# 20 vertex normals

g Text001
usemtl wire_057008136
s 2
f 1//1 2//1 3//1 
f 2//1 4//1 3//1 
s 4
f 2//2 5//2 4//2 
f 5//2 6//2 4//2 
s 8
f 5//3 7//3 6//3 
f 7//3 8//3 6//3 
s 16
f 7//1 9//1 8//1 
f 9//1 10//1 8//1 
s 2
f 9//4 11//4 10//4 
f 11//4 12//4 10//4 
s 4
f 11//5 13//5 12//5 
f 13//5 14//5 12//5 
s 8
f 13//6 15//6 14//6 
f 15//6 16//6 14//6 
s 16
f 15//4 17//4 16//4 
f 17//4 18//4 16//4 
s 2
f 17//5 19//5 18//5 
f 19//5 20//5 18//5 
s 5
f 19//3 1//3 20//3 
f 1//3 3//3 20//3 
s 64
f 3//7 4//7 21//7 
f 4//7 22//7 21//7 
s 128
f 4//8 6//8 22//8 
f 6//8 23//8 22//8 
s 256
f 6//9 8//9 23//9 
f 8//9 24//9 23//9 
s 512
f 8//7 10//7 24//7 
f 10//7 25//7 24//7 
s 64
f 10//10 12//10 25//10 
f 12//10 26//10 25//10 
s 128
f 12//11 14//11 26//11 
f 14//11 27//11 26//11 
s 256
f 14//12 16//12 27//12 
f 16//12 28//12 27//12 
s 512
f 16//10 18//10 28//10 
f 18//10 29//10 28//10 
s 64
f 18//11 20//11 29//11 
f 20//11 30//11 29//11 
s 160
f 20//9 3//9 30//9 
f 3//9 21//9 30//9 
s 2
f 21//13 22//13 31//13 
f 22//13 32//13 31//13 
s 4
f 22//14 23//14 32//14 
f 23//14 33//14 32//14 
s 8
f 23//15 24//15 33//15 
f 24//15 34//15 33//15 
s 16
f 24//13 25//13 34//13 
f 25//13 35//13 34//13 
s 2
f 25//16 26//16 35//16 
f 26//16 36//16 35//16 
s 4
f 26//17 27//17 36//17 
f 27//17 37//17 36//17 
s 8
f 27//18 28//18 37//18 
f 28//18 38//18 37//18 
s 16
f 28//16 29//16 38//16 
f 29//16 39//16 38//16 
s 2
f 29//17 30//17 39//17 
f 30//17 40//17 39//17 
s 5
f 30//15 21//15 40//15 
f 21//15 31//15 40//15 
s 1024
f 39//19 40//19 31//19 
f 39//19 31//19 32//19 
f 38//19 39//19 32//19 
f 37//19 38//19 32//19 
f 37//19 32//19 33//19 
f 37//19 33//19 34//19 
f 37//19 34//19 35//19 
f 36//19 37//19 35//19 
f 17//20 1//20 19//20 
f 17//20 2//20 1//20 
f 15//20 2//20 17//20 
f 13//20 2//20 15//20 
f 13//20 5//20 2//20 
f 13//20 7//20 5//20 
f 13//20 9//20 7//20 
f 11//20 9//20 13//20 
# 76 faces

