# 3ds Max Wavefront OBJ Exporter v0.97b - (c)2007 guruware
# File Created: 12.02.2016 14:40:23

mtllib T.mtl

#
# object Text001
#

v  0.0325 0.0000 -0.5750
v  0.0325 0.0000 -0.0100
v  0.0425 0.0100 -0.0000
v  0.0425 0.0100 -0.5650
v  0.2435 0.0000 -0.5750
v  0.2535 0.0100 -0.5650
v  0.2435 0.0000 -0.6310
v  0.2535 0.0100 -0.6410
v  -0.2435 0.0000 -0.6310
v  -0.2535 0.0100 -0.6410
v  -0.2435 0.0000 -0.5750
v  -0.2535 0.0100 -0.5650
v  -0.0325 0.0000 -0.5750
v  -0.0425 0.0100 -0.5650
v  -0.0325 0.0000 -0.0100
v  -0.0425 0.0100 -0.0000
v  0.0425 0.1100 -0.0000
v  0.0425 0.1100 -0.5650
v  0.2535 0.1100 -0.5650
v  0.2535 0.1100 -0.6410
v  -0.2535 0.1100 -0.6410
v  -0.2535 0.1100 -0.5650
v  -0.0425 0.1100 -0.5650
v  -0.0425 0.1100 -0.0000
v  0.0325 0.1200 -0.0100
v  0.0325 0.1200 -0.5750
v  0.2435 0.1200 -0.5750
v  0.2435 0.1200 -0.6310
v  -0.2435 0.1200 -0.6310
v  -0.2435 0.1200 -0.5750
v  -0.0325 0.1200 -0.5750
v  -0.0325 0.1200 -0.0100
# 32 vertices

vn -0.7071 0.7071 -0.0000
vn 0.0000 0.7071 -0.7071
vn 0.0000 0.7071 0.7071
vn 0.7071 0.7071 -0.0000
vn -1.0000 0.0000 -0.0000
vn 0.0000 0.0000 -1.0000
vn 0.0000 0.0000 1.0000
vn 1.0000 0.0000 -0.0000
vn -0.7071 -0.7071 -0.0000
vn 0.0000 -0.7071 -0.7071
vn 0.0000 -0.7071 0.7071
vn 0.7071 -0.7071 -0.0000
vn 0.0000 -1.0000 -0.0000
vn 0.0000 1.0000 -0.0000
# 14 vertex normals

g Text001
usemtl wire_143225087
s 2
f 1//1 2//1 3//1 
f 4//1 1//1 3//1 
s 4
f 5//2 1//2 4//2 
f 6//2 5//2 4//2 
s 8
f 7//1 5//1 6//1 
f 8//1 7//1 6//1 
s 16
f 9//3 7//3 8//3 
f 10//3 9//3 8//3 
s 2
f 11//4 9//4 10//4 
f 12//4 11//4 10//4 
s 4
f 13//2 11//2 12//2 
f 14//2 13//2 12//2 
s 8
f 15//4 13//4 14//4 
f 16//4 15//4 14//4 
s 17
f 2//2 15//2 16//2 
f 3//2 2//2 16//2 
s 64
f 4//5 3//5 17//5 
f 18//5 4//5 17//5 
s 128
f 6//6 4//6 18//6 
f 19//6 6//6 18//6 
s 256
f 8//5 6//5 19//5 
f 20//5 8//5 19//5 
s 512
f 10//7 8//7 20//7 
f 21//7 10//7 20//7 
s 64
f 12//8 10//8 21//8 
f 22//8 12//8 21//8 
s 128
f 14//6 12//6 22//6 
f 23//6 14//6 22//6 
s 256
f 16//8 14//8 23//8 
f 24//8 16//8 23//8 
s 544
f 3//6 16//6 24//6 
f 17//6 3//6 24//6 
s 2
f 18//9 17//9 25//9 
f 26//9 18//9 25//9 
s 4
f 19//10 18//10 26//10 
f 27//10 19//10 26//10 
s 8
f 20//9 19//9 27//9 
f 28//9 20//9 27//9 
s 16
f 21//11 20//11 28//11 
f 29//11 21//11 28//11 
s 2
f 22//12 21//12 29//12 
f 30//12 22//12 29//12 
s 4
f 23//10 22//10 30//10 
f 31//10 23//10 30//10 
s 8
f 24//12 23//12 31//12 
f 32//12 24//12 31//12 
s 17
f 17//10 24//10 32//10 
f 25//10 17//10 32//10 
s 1024
f 32//13 31//13 25//13 
f 25//13 31//13 26//13 
f 30//13 29//13 31//13 
f 29//13 28//13 31//13 
f 31//13 28//13 26//13 
f 26//13 28//13 27//13 
f 2//14 13//14 15//14 
f 1//14 13//14 2//14 
f 13//14 9//14 11//14 
f 13//14 7//14 9//14 
f 1//14 7//14 13//14 
f 5//14 7//14 1//14 
# 60 faces

