# 3ds Max Wavefront OBJ Exporter v0.97b - (c)2007 guruware
# File Created: 12.02.2016 14:39:01

mtllib W.mtl

#
# object Text001
#

v  -0.0298 0.0000 -0.4909
v  -0.1626 0.0000 -0.0100
v  -0.1549 0.0100 -0.0000
v  -0.0201 0.0100 -0.4883
v  -0.0008 0.0000 -0.6023
v  -0.0005 0.0100 -0.5636
v  0.0298 0.0000 -0.4911
v  0.0202 0.0100 -0.4884
v  0.1623 0.0000 -0.0100
v  0.1547 0.0100 0.0000
v  0.2300 0.0000 -0.0100
v  0.2377 0.0100 0.0000
v  0.3989 0.0000 -0.6310
v  0.4120 0.0100 -0.6410
v  0.3346 0.0000 -0.6310
v  0.3268 0.0100 -0.6410
v  0.2366 0.0000 -0.2265
v  0.2269 0.0100 -0.2288
v  0.1927 0.0000 -0.0378
v  0.1945 0.0100 -0.0896
v  0.1797 0.0000 -0.1186
v  0.1896 0.0100 -0.1203
v  0.1741 0.0000 -0.1496
v  0.1839 0.0100 -0.1515
v  0.1677 0.0000 -0.1812
v  0.1775 0.0100 -0.1833
v  0.1606 0.0000 -0.2134
v  0.1704 0.0100 -0.2157
v  0.1528 0.0000 -0.2463
v  0.1625 0.0100 -0.2487
v  0.1442 0.0000 -0.2797
v  0.1538 0.0100 -0.2823
v  0.1348 0.0000 -0.3138
v  0.1445 0.0100 -0.3165
v  0.0452 0.0000 -0.6310
v  0.0528 0.0100 -0.6410
v  -0.0418 0.0000 -0.6310
v  -0.0494 0.0100 -0.6410
v  -0.1615 0.0000 -0.2053
v  -0.1712 0.0100 -0.2079
v  -0.2013 0.0000 -0.0447
v  -0.2005 0.0100 -0.0896
v  -0.2376 0.0000 -0.2185
v  -0.2278 0.0100 -0.2207
v  -0.3321 0.0000 -0.6310
v  -0.3241 0.0100 -0.6410
v  -0.3990 0.0000 -0.6310
v  -0.4120 0.0100 -0.6410
v  -0.2360 0.0000 -0.0100
v  -0.2437 0.0100 -0.0000
v  -0.1549 0.1100 -0.0000
v  -0.0201 0.1100 -0.4883
v  -0.0005 0.1100 -0.5636
v  0.0202 0.1100 -0.4884
v  0.1547 0.1100 0.0000
v  0.2377 0.1100 0.0000
v  0.4120 0.1100 -0.6410
v  0.3268 0.1100 -0.6410
v  0.2269 0.1100 -0.2288
v  0.1945 0.1100 -0.0896
v  0.1896 0.1100 -0.1203
v  0.1839 0.1100 -0.1515
v  0.1775 0.1100 -0.1833
v  0.1704 0.1100 -0.2157
v  0.1625 0.1100 -0.2487
v  0.1538 0.1100 -0.2823
v  0.1445 0.1100 -0.3165
v  0.0528 0.1100 -0.6410
v  -0.0494 0.1100 -0.6410
v  -0.1712 0.1100 -0.2079
v  -0.2005 0.1100 -0.0896
v  -0.2278 0.1100 -0.2207
v  -0.3241 0.1100 -0.6410
v  -0.4120 0.1100 -0.6410
v  -0.2437 0.1100 -0.0000
v  -0.1626 0.1200 -0.0100
v  -0.0298 0.1200 -0.4909
v  -0.0008 0.1200 -0.6023
v  0.0298 0.1200 -0.4911
v  0.1623 0.1200 -0.0100
v  0.2300 0.1200 -0.0100
v  0.3989 0.1200 -0.6310
v  0.3346 0.1200 -0.6310
v  0.2366 0.1200 -0.2265
v  0.1927 0.1200 -0.0378
v  0.1797 0.1200 -0.1186
v  0.1741 0.1200 -0.1496
v  0.1677 0.1200 -0.1812
v  0.1606 0.1200 -0.2134
v  0.1528 0.1200 -0.2463
v  0.1442 0.1200 -0.2797
v  0.1348 0.1200 -0.3138
v  0.0452 0.1200 -0.6310
v  -0.0418 0.1200 -0.6310
v  -0.1615 0.1200 -0.2053
v  -0.2013 0.1200 -0.0447
v  -0.2376 0.1200 -0.2185
v  -0.3321 0.1200 -0.6310
v  -0.3990 0.1200 -0.6310
v  -0.2360 0.1200 -0.0100
# 100 vertices

vn -0.6816 0.7071 -0.1882
vn -0.6843 0.7071 -0.1781
vn 0.6817 0.7071 -0.1877
vn 0.0000 0.7071 -0.7071
vn -0.6823 0.7071 -0.1856
vn -0.0000 0.7071 0.7071
vn 0.6872 0.7071 0.1666
vn 0.6887 0.7071 0.1602
vn -0.6970 0.7071 0.1192
vn -0.6981 0.7071 0.1122
vn -0.6945 0.7071 0.1329
vn -0.6919 0.7071 0.1460
vn -0.6891 0.7071 0.1584
vn -0.6863 0.7071 0.1702
vn -0.6834 0.7071 0.1815
vn -0.6819 0.7071 0.1870
vn -0.6805 0.7071 0.1922
vn 0.6807 0.7071 0.1914
vn 0.6864 0.7071 0.1700
vn -0.6922 0.7071 0.1444
vn -0.6893 0.7071 0.1579
vn 0.6839 0.7071 -0.1796
vn -0.9639 0.0000 -0.2662
vn -0.9678 0.0000 -0.2519
vn 0.9641 0.0000 -0.2654
vn 0.0000 0.0000 -1.0000
vn -0.9649 0.0000 -0.2625
vn -0.0000 0.0000 1.0000
vn 0.9719 0.0000 0.2356
vn 0.9740 0.0000 0.2265
vn -0.9857 0.0000 0.1686
vn -0.9873 0.0000 0.1587
vn -0.9822 0.0000 0.1880
vn -0.9785 0.0000 0.2064
vn -0.9746 0.0000 0.2240
vn -0.9706 0.0000 0.2407
vn -0.9665 0.0000 0.2566
vn -0.9644 0.0000 0.2644
vn -0.9624 0.0000 0.2718
vn 0.9627 0.0000 0.2707
vn 0.9707 0.0000 0.2404
vn -0.9789 0.0000 0.2042
vn -0.9748 0.0000 0.2233
vn 0.9672 0.0000 -0.2539
vn -0.6816 -0.7071 -0.1882
vn -0.6843 -0.7071 -0.1781
vn 0.6817 -0.7071 -0.1877
vn 0.0000 -0.7071 -0.7071
vn -0.6823 -0.7071 -0.1856
vn -0.0000 -0.7071 0.7071
vn 0.6872 -0.7071 0.1666
vn 0.6887 -0.7071 0.1602
vn -0.6970 -0.7071 0.1192
vn -0.6981 -0.7071 0.1122
vn -0.6945 -0.7071 0.1329
vn -0.6919 -0.7071 0.1460
vn -0.6891 -0.7071 0.1584
vn -0.6863 -0.7071 0.1702
vn -0.6834 -0.7071 0.1815
vn -0.6819 -0.7071 0.1870
vn -0.6805 -0.7071 0.1922
vn 0.6807 -0.7071 0.1914
vn 0.6864 -0.7071 0.1700
vn -0.6922 -0.7071 0.1444
vn -0.6893 -0.7071 0.1579
vn 0.6839 -0.7071 -0.1796
vn 0.0000 -1.0000 -0.0000
vn 0.0000 1.0000 -0.0000
# 68 vertex normals

g Text001
usemtl wire_176026026
s 2
f 1//1 2//1 3//1 
f 4//1 1//1 3//1 
s 4
f 5//2 1//2 4//2 
f 6//2 5//2 4//2 
s 8
f 7//3 5//3 6//3 
f 8//3 7//3 6//3 
s 16
f 9//3 7//3 8//3 
f 10//3 9//3 8//3 
s 2
f 11//4 9//4 10//4 
f 12//4 11//4 10//4 
s 4
f 13//5 11//5 12//5 
f 14//5 13//5 12//5 
s 8
f 15//6 13//6 14//6 
f 16//6 15//6 14//6 
s 16
f 17//7 15//7 16//7 
f 18//7 17//7 16//7 
s 2
f 19//8 17//8 18//8 
f 20//8 19//8 18//8 
s 4
f 21//9 19//10 20//10 
f 22//9 21//9 20//10 
f 23//11 21//9 22//9 
f 24//11 23//11 22//9 
f 25//12 23//11 24//11 
f 26//12 25//12 24//11 
f 27//13 25//12 26//12 
f 28//13 27//13 26//12 
f 29//14 27//13 28//13 
f 30//14 29//14 28//13 
f 31//15 29//14 30//14 
f 32//15 31//15 30//14 
f 33//16 31//15 32//15 
f 34//16 33//16 32//15 
s 8
f 35//17 33//17 34//17 
f 36//17 35//17 34//17 
s 16
f 37//6 35//6 36//6 
f 38//6 37//6 36//6 
s 2
f 39//18 37//18 38//18 
f 40//18 39//18 38//18 
s 4
f 41//19 39//19 40//19 
f 42//19 41//19 40//19 
s 8
f 43//20 41//20 42//20 
f 44//20 43//20 42//20 
s 16
f 45//21 43//21 44//21 
f 46//21 45//21 44//21 
s 2
f 47//6 45//6 46//6 
f 48//6 47//6 46//6 
s 4
f 49//22 47//22 48//22 
f 50//22 49//22 48//22 
s 9
f 2//4 49//4 50//4 
f 3//4 2//4 50//4 
s 64
f 4//23 3//23 51//23 
f 52//23 4//23 51//23 
s 128
f 6//24 4//24 52//24 
f 53//24 6//24 52//24 
s 256
f 8//25 6//25 53//25 
f 54//25 8//25 53//25 
s 512
f 10//25 8//25 54//25 
f 55//25 10//25 54//25 
s 64
f 12//26 10//26 55//26 
f 56//26 12//26 55//26 
s 128
f 14//27 12//27 56//27 
f 57//27 14//27 56//27 
s 256
f 16//28 14//28 57//28 
f 58//28 16//28 57//28 
s 512
f 18//29 16//29 58//29 
f 59//29 18//29 58//29 
s 64
f 20//30 18//30 59//30 
f 60//30 20//30 59//30 
s 128
f 22//31 20//32 60//32 
f 61//31 22//31 60//32 
f 24//33 22//31 61//31 
f 62//33 24//33 61//31 
f 26//34 24//33 62//33 
f 63//34 26//34 62//33 
f 28//35 26//34 63//34 
f 64//35 28//35 63//34 
f 30//36 28//35 64//35 
f 65//36 30//36 64//35 
f 32//37 30//36 65//36 
f 66//37 32//37 65//36 
f 34//38 32//37 66//37 
f 67//38 34//38 66//37 
s 256
f 36//39 34//39 67//39 
f 68//39 36//39 67//39 
s 512
f 38//28 36//28 68//28 
f 69//28 38//28 68//28 
s 64
f 40//40 38//40 69//40 
f 70//40 40//40 69//40 
s 128
f 42//41 40//41 70//41 
f 71//41 42//41 70//41 
s 256
f 44//42 42//42 71//42 
f 72//42 44//42 71//42 
s 512
f 46//43 44//43 72//43 
f 73//43 46//43 72//43 
s 64
f 48//28 46//28 73//28 
f 74//28 48//28 73//28 
s 128
f 50//44 48//44 74//44 
f 75//44 50//44 74//44 
s 288
f 3//26 50//26 75//26 
f 51//26 3//26 75//26 
s 2
f 52//45 51//45 76//45 
f 77//45 52//45 76//45 
s 4
f 53//46 52//46 77//46 
f 78//46 53//46 77//46 
s 8
f 54//47 53//47 78//47 
f 79//47 54//47 78//47 
s 16
f 55//47 54//47 79//47 
f 80//47 55//47 79//47 
s 2
f 56//48 55//48 80//48 
f 81//48 56//48 80//48 
s 4
f 57//49 56//49 81//49 
f 82//49 57//49 81//49 
s 8
f 58//50 57//50 82//50 
f 83//50 58//50 82//50 
s 16
f 59//51 58//51 83//51 
f 84//51 59//51 83//51 
s 2
f 60//52 59//52 84//52 
f 85//52 60//52 84//52 
s 4
f 61//53 60//54 85//54 
f 86//53 61//53 85//54 
f 62//55 61//53 86//53 
f 87//55 62//55 86//53 
f 63//56 62//55 87//55 
f 88//56 63//56 87//55 
f 64//57 63//56 88//56 
f 89//57 64//57 88//56 
f 65//58 64//57 89//57 
f 90//58 65//58 89//57 
f 66//59 65//58 90//58 
f 91//59 66//59 90//58 
f 67//60 66//59 91//59 
f 92//60 67//60 91//59 
s 8
f 68//61 67//61 92//61 
f 93//61 68//61 92//61 
s 16
f 69//50 68//50 93//50 
f 94//50 69//50 93//50 
s 2
f 70//62 69//62 94//62 
f 95//62 70//62 94//62 
s 4
f 71//63 70//63 95//63 
f 96//63 71//63 95//63 
s 8
f 72//64 71//64 96//64 
f 97//64 72//64 96//64 
s 16
f 73//65 72//65 97//65 
f 98//65 73//65 97//65 
s 2
f 74//50 73//50 98//50 
f 99//50 74//50 98//50 
s 4
f 75//66 74//66 99//66 
f 100//66 75//66 99//66 
s 9
f 51//48 75//48 100//48 
f 76//48 51//48 100//48 
s 1024
f 82//67 81//67 83//67 
f 83//67 81//67 84//67 
f 84//67 81//67 85//67 
f 81//67 80//67 85//67 
f 80//67 79//67 85//67 
f 85//67 79//67 86//67 
f 86//67 79//67 87//67 
f 87//67 79//67 88//67 
f 88//67 79//67 89//67 
f 89//67 79//67 90//67 
f 90//67 79//67 91//67 
f 91//67 79//67 92//67 
f 92//67 79//67 93//67 
f 79//67 78//67 93//67 
f 93//67 78//67 94//67 
f 94//67 78//67 95//67 
f 78//67 77//67 95//67 
f 77//67 76//67 95//67 
f 95//67 76//67 96//67 
f 76//67 100//67 96//67 
f 100//67 99//67 96//67 
f 96//67 99//67 97//67 
f 97//67 99//67 98//67 
f 15//68 11//68 13//68 
f 17//68 11//68 15//68 
f 19//68 11//68 17//68 
f 19//68 9//68 11//68 
f 19//68 7//68 9//68 
f 21//68 7//68 19//68 
f 23//68 7//68 21//68 
f 25//68 7//68 23//68 
f 27//68 7//68 25//68 
f 29//68 7//68 27//68 
f 31//68 7//68 29//68 
f 33//68 7//68 31//68 
f 35//68 7//68 33//68 
f 35//68 5//68 7//68 
f 37//68 5//68 35//68 
f 39//68 5//68 37//68 
f 39//68 1//68 5//68 
f 39//68 2//68 1//68 
f 41//68 2//68 39//68 
f 41//68 49//68 2//68 
f 41//68 47//68 49//68 
f 43//68 47//68 41//68 
f 45//68 47//68 43//68 
# 196 faces

