# 3ds Max Wavefront OBJ Exporter v0.97b - (c)2007 guruware
# File Created: 12.02.2016 14:38:39

mtllib X.mtl

#
# object Text001
#

v  -0.0371 0.0000 -0.2287
v  -0.1962 0.0000 -0.0100
v  -0.1911 0.0100 -0.0000
v  -0.0289 0.0100 -0.2230
v  0.0008 0.0000 -0.2852
v  0.0008 0.0100 -0.2674
v  0.0360 0.0000 -0.2333
v  0.0278 0.0100 -0.2276
v  0.1942 0.0000 -0.0100
v  0.1890 0.0100 -0.0000
v  0.2736 0.0000 -0.0100
v  0.2930 0.0100 -0.0000
v  0.0408 0.0000 -0.3360
v  0.0531 0.0100 -0.3359
v  0.2554 0.0000 -0.6310
v  0.2750 0.0100 -0.6410
v  0.1868 0.0000 -0.6310
v  0.1818 0.0100 -0.6410
v  0.0632 0.0000 -0.4657
v  0.0552 0.0100 -0.4718
v  0.0550 0.0000 -0.4550
v  0.0470 0.0100 -0.4610
v  0.0471 0.0000 -0.4444
v  0.0391 0.0100 -0.4504
v  0.0396 0.0000 -0.4340
v  0.0314 0.0100 -0.4399
v  0.0323 0.0000 -0.4238
v  0.0241 0.0100 -0.4295
v  0.0254 0.0000 -0.4137
v  0.0171 0.0100 -0.4193
v  0.0187 0.0000 -0.4037
v  0.0104 0.0100 -0.4092
v  0.0035 0.0000 -0.3800
v  0.0040 0.0100 -0.3992
v  -0.0091 0.0000 -0.4019
v  -0.0005 0.0100 -0.4070
v  -0.0144 0.0000 -0.4105
v  -0.0059 0.0100 -0.4158
v  -0.0206 0.0000 -0.4202
v  -0.0122 0.0100 -0.4257
v  -0.0278 0.0000 -0.4310
v  -0.0195 0.0100 -0.4366
v  -0.0358 0.0000 -0.4429
v  -0.0276 0.0100 -0.4485
v  -0.0448 0.0000 -0.4558
v  -0.0366 0.0100 -0.4615
v  -0.0547 0.0000 -0.4698
v  -0.0466 0.0100 -0.4756
v  -0.1698 0.0000 -0.6310
v  -0.1647 0.0100 -0.6410
v  -0.2457 0.0000 -0.6310
v  -0.2650 0.0100 -0.6410
v  -0.0343 0.0000 -0.3325
v  -0.0466 0.0100 -0.3326
v  -0.2731 0.0000 -0.0100
v  -0.2930 0.0100 -0.0000
v  -0.1911 0.1100 -0.0000
v  -0.0289 0.1100 -0.2230
v  0.0008 0.1100 -0.2674
v  0.0278 0.1100 -0.2276
v  0.1890 0.1100 -0.0000
v  0.2930 0.1100 -0.0000
v  0.0531 0.1100 -0.3359
v  0.2750 0.1100 -0.6410
v  0.1818 0.1100 -0.6410
v  0.0552 0.1100 -0.4718
v  0.0470 0.1100 -0.4610
v  0.0391 0.1100 -0.4504
v  0.0314 0.1100 -0.4399
v  0.0241 0.1100 -0.4295
v  0.0171 0.1100 -0.4193
v  0.0104 0.1100 -0.4092
v  0.0040 0.1100 -0.3992
v  -0.0005 0.1100 -0.4070
v  -0.0059 0.1100 -0.4158
v  -0.0122 0.1100 -0.4257
v  -0.0195 0.1100 -0.4366
v  -0.0276 0.1100 -0.4485
v  -0.0366 0.1100 -0.4615
v  -0.0466 0.1100 -0.4756
v  -0.1647 0.1100 -0.6410
v  -0.2650 0.1100 -0.6410
v  -0.0466 0.1100 -0.3326
v  -0.2930 0.1100 -0.0000
v  -0.1962 0.1200 -0.0100
v  -0.0371 0.1200 -0.2287
v  0.0008 0.1200 -0.2852
v  0.0360 0.1200 -0.2333
v  0.1942 0.1200 -0.0100
v  0.2736 0.1200 -0.0100
v  0.0408 0.1200 -0.3360
v  0.2554 0.1200 -0.6310
v  0.1868 0.1200 -0.6310
v  0.0632 0.1200 -0.4657
v  0.0550 0.1200 -0.4550
v  0.0471 0.1200 -0.4444
v  0.0396 0.1200 -0.4340
v  0.0323 0.1200 -0.4238
v  0.0254 0.1200 -0.4137
v  0.0187 0.1200 -0.4037
v  0.0035 0.1200 -0.3800
v  -0.0091 0.1200 -0.4019
v  -0.0144 0.1200 -0.4105
v  -0.0206 0.1200 -0.4202
v  -0.0278 0.1200 -0.4310
v  -0.0358 0.1200 -0.4429
v  -0.0448 0.1200 -0.4558
v  -0.0547 0.1200 -0.4698
v  -0.1698 0.1200 -0.6310
v  -0.2457 0.1200 -0.6310
v  -0.0343 0.1200 -0.3325
v  -0.2731 0.1200 -0.0100
# 112 vertices

vn -0.5719 0.7071 -0.4159
vn -0.5870 0.7071 -0.3942
vn 0.5853 0.7071 -0.3968
vn 0.5770 0.7071 -0.4087
vn -0.0000 0.7071 -0.7071
vn 0.0000 0.7071 -0.7071
vn -0.5755 0.7071 0.4109
vn 0.0000 0.7071 0.7071
vn 0.5662 0.7071 0.4235
vn 0.5643 0.7071 0.4260
vn 0.5618 0.7071 0.4294
vn 0.5695 0.7071 0.4191
vn 0.5748 0.7071 0.4118
vn 0.5803 0.7071 0.4041
vn 0.5859 0.7071 0.3959
vn 0.5916 0.7071 0.3873
vn 0.5945 0.7071 0.3828
vn -0.6077 0.7071 0.3614
vn -0.6123 0.7071 0.3536
vn -0.5994 0.7071 0.3751
vn -0.5927 0.7071 0.3856
vn -0.5872 0.7071 0.3939
vn -0.5827 0.7071 0.4006
vn -0.5788 0.7071 0.4061
vn -0.5771 0.7071 0.4086
vn 0.5682 0.7071 0.4209
vn -0.8087 0.0000 -0.5882
vn -0.8302 0.0000 -0.5575
vn 0.8277 0.0000 -0.5611
vn 0.8160 0.0000 -0.5780
vn 0.0000 0.0000 -1.0000
vn -0.8138 0.0000 0.5811
vn -0.8088 0.0000 -0.5881
vn 0.0000 0.0000 1.0000
vn 0.8008 0.0000 0.5990
vn 0.7981 0.0000 0.6025
vn 0.7945 0.0000 0.6073
vn 0.8054 0.0000 0.5927
vn 0.8129 0.0000 0.5823
vn 0.8207 0.0000 0.5714
vn 0.8286 0.0000 0.5599
vn 0.8367 0.0000 0.5477
vn 0.8408 0.0000 0.5414
vn -0.8595 0.0000 0.5111
vn -0.8660 0.0000 0.5001
vn -0.8477 0.0000 0.5305
vn -0.8382 0.0000 0.5453
vn -0.8305 0.0000 0.5570
vn -0.8241 0.0000 0.5665
vn -0.8186 0.0000 0.5743
vn -0.8161 0.0000 0.5779
vn 0.8161 0.0000 -0.5780
vn 0.8036 0.0000 0.5952
vn -0.5719 -0.7071 -0.4159
vn -0.5870 -0.7071 -0.3942
vn 0.5853 -0.7071 -0.3968
vn 0.5770 -0.7071 -0.4087
vn -0.0000 -0.7071 -0.7071
vn 0.0000 -0.7071 -0.7071
vn -0.5755 -0.7071 0.4109
vn 0.0000 -0.7071 0.7071
vn 0.5662 -0.7071 0.4235
vn 0.5643 -0.7071 0.4260
vn 0.5618 -0.7071 0.4294
vn 0.5695 -0.7071 0.4191
vn 0.5748 -0.7071 0.4118
vn 0.5803 -0.7071 0.4041
vn 0.5859 -0.7071 0.3959
vn 0.5916 -0.7071 0.3873
vn 0.5945 -0.7071 0.3828
vn -0.6077 -0.7071 0.3614
vn -0.6123 -0.7071 0.3536
vn -0.5994 -0.7071 0.3751
vn -0.5927 -0.7071 0.3856
vn -0.5872 -0.7071 0.3939
vn -0.5827 -0.7071 0.4006
vn -0.5788 -0.7071 0.4061
vn -0.5771 -0.7071 0.4086
vn 0.5682 -0.7071 0.4209
vn 0.0000 -1.0000 -0.0000
vn 0.0000 1.0000 -0.0000
# 81 vertex normals

g Text001
usemtl wire_135110008
s 2
f 1//1 2//1 3//1 
f 4//1 1//1 3//1 
s 4
f 5//2 1//2 4//2 
f 6//2 5//2 4//2 
s 8
f 7//3 5//3 6//3 
f 8//3 7//3 6//3 
s 16
f 9//4 7//4 8//4 
f 10//4 9//4 8//4 
s 2
f 11//5 9//5 10//5 
f 12//6 11//5 10//5 
s 4
f 13//7 11//7 12//7 
f 14//7 13//7 12//7 
s 8
f 15//1 13//1 14//1 
f 16//1 15//1 14//1 
s 16
f 17//8 15//8 16//8 
f 18//8 17//8 16//8 
s 2
f 19//9 17//9 18//9 
f 20//9 19//9 18//9 
s 4
f 21//10 19//11 20//11 
f 22//10 21//10 20//11 
f 23//12 21//10 22//10 
f 24//12 23//12 22//10 
f 25//13 23//12 24//12 
f 26//13 25//13 24//12 
f 27//14 25//13 26//13 
f 28//14 27//14 26//13 
f 29//15 27//14 28//14 
f 30//15 29//15 28//14 
f 31//16 29//15 30//15 
f 32//16 31//16 30//15 
f 33//17 31//16 32//16 
f 34//17 33//17 32//16 
s 8
f 35//18 33//19 34//19 
f 36//18 35//18 34//19 
f 37//20 35//18 36//18 
f 38//20 37//20 36//18 
f 39//21 37//20 38//20 
f 40//21 39//21 38//20 
f 41//22 39//21 40//21 
f 42//22 41//22 40//21 
f 43//23 41//22 42//22 
f 44//23 43//23 42//22 
f 45//24 43//23 44//23 
f 46//24 45//24 44//23 
f 47//25 45//24 46//24 
f 48//25 47//25 46//24 
s 16
f 49//7 47//7 48//7 
f 50//7 49//7 48//7 
s 2
f 51//8 49//8 50//8 
f 52//8 51//8 50//8 
s 4
f 53//4 51//4 52//4 
f 54//4 53//4 52//4 
s 8
f 55//26 53//26 54//26 
f 56//26 55//26 54//26 
s 17
f 2//6 55//6 56//6 
f 3//6 2//6 56//6 
s 64
f 4//27 3//27 57//27 
f 58//27 4//27 57//27 
s 128
f 6//28 4//28 58//28 
f 59//28 6//28 58//28 
s 256
f 8//29 6//29 59//29 
f 60//29 8//29 59//29 
s 512
f 10//30 8//30 60//30 
f 61//30 10//30 60//30 
s 64
f 12//31 10//31 61//31 
f 62//31 12//31 61//31 
s 128
f 14//32 12//32 62//32 
f 63//32 14//32 62//32 
s 256
f 16//33 14//33 63//33 
f 64//33 16//33 63//33 
s 512
f 18//34 16//34 64//34 
f 65//34 18//34 64//34 
s 64
f 20//35 18//35 65//35 
f 66//35 20//35 65//35 
s 128
f 22//36 20//37 66//37 
f 67//36 22//36 66//37 
f 24//38 22//36 67//36 
f 68//38 24//38 67//36 
f 26//39 24//38 68//38 
f 69//39 26//39 68//38 
f 28//40 26//39 69//39 
f 70//40 28//40 69//39 
f 30//41 28//40 70//40 
f 71//41 30//41 70//40 
f 32//42 30//41 71//41 
f 72//42 32//42 71//41 
f 34//43 32//42 72//42 
f 73//43 34//43 72//42 
s 256
f 36//44 34//45 73//45 
f 74//44 36//44 73//45 
f 38//46 36//44 74//44 
f 75//46 38//46 74//44 
f 40//47 38//46 75//46 
f 76//47 40//47 75//46 
f 42//48 40//47 76//47 
f 77//48 42//48 76//47 
f 44//49 42//48 77//48 
f 78//49 44//49 77//48 
f 46//50 44//49 78//49 
f 79//50 46//50 78//49 
f 48//51 46//50 79//50 
f 80//51 48//51 79//50 
s 512
f 50//32 48//32 80//32 
f 81//32 50//32 80//32 
s 64
f 52//34 50//34 81//34 
f 82//34 52//34 81//34 
s 128
f 54//52 52//52 82//52 
f 83//52 54//52 82//52 
s 256
f 56//53 54//53 83//53 
f 84//53 56//53 83//53 
s 544
f 3//31 56//31 84//31 
f 57//31 3//31 84//31 
s 2
f 58//54 57//54 85//54 
f 86//54 58//54 85//54 
s 4
f 59//55 58//55 86//55 
f 87//55 59//55 86//55 
s 8
f 60//56 59//56 87//56 
f 88//56 60//56 87//56 
s 16
f 61//57 60//57 88//57 
f 89//57 61//57 88//57 
s 2
f 62//58 61//59 89//58 
f 90//58 62//58 89//58 
s 4
f 63//60 62//60 90//60 
f 91//60 63//60 90//60 
s 8
f 64//54 63//54 91//54 
f 92//54 64//54 91//54 
s 16
f 65//61 64//61 92//61 
f 93//61 65//61 92//61 
s 2
f 66//62 65//62 93//62 
f 94//62 66//62 93//62 
s 4
f 67//63 66//64 94//64 
f 95//63 67//63 94//64 
f 68//65 67//63 95//63 
f 96//65 68//65 95//63 
f 69//66 68//65 96//65 
f 97//66 69//66 96//65 
f 70//67 69//66 97//66 
f 98//67 70//67 97//66 
f 71//68 70//67 98//67 
f 99//68 71//68 98//67 
f 72//69 71//68 99//68 
f 100//69 72//69 99//68 
f 73//70 72//69 100//69 
f 101//70 73//70 100//69 
s 8
f 74//71 73//72 101//72 
f 102//71 74//71 101//72 
f 75//73 74//71 102//71 
f 103//73 75//73 102//71 
f 76//74 75//73 103//73 
f 104//74 76//74 103//73 
f 77//75 76//74 104//74 
f 105//75 77//75 104//74 
f 78//76 77//75 105//75 
f 106//76 78//76 105//75 
f 79//77 78//76 106//76 
f 107//77 79//77 106//76 
f 80//78 79//77 107//77 
f 108//78 80//78 107//77 
s 16
f 81//60 80//60 108//60 
f 109//60 81//60 108//60 
s 2
f 82//61 81//61 109//61 
f 110//61 82//61 109//61 
s 4
f 83//57 82//57 110//57 
f 111//57 83//57 110//57 
s 8
f 84//79 83//79 111//79 
f 112//79 84//79 111//79 
s 17
f 57//59 84//59 112//59 
f 85//59 57//59 112//59 
s 1024
f 112//80 111//80 85//80 
f 85//80 111//80 86//80 
f 86//80 111//80 87//80 
f 92//80 91//80 93//80 
f 93//80 91//80 94//80 
f 94//80 91//80 95//80 
f 95//80 91//80 96//80 
f 96//80 91//80 97//80 
f 97//80 91//80 98//80 
f 98//80 91//80 99//80 
f 99//80 91//80 100//80 
f 100//80 91//80 101//80 
f 90//80 89//80 91//80 
f 89//80 88//80 91//80 
f 88//80 87//80 91//80 
f 110//80 109//80 111//80 
f 109//80 108//80 111//80 
f 108//80 107//80 111//80 
f 107//80 106//80 111//80 
f 106//80 105//80 111//80 
f 105//80 104//80 111//80 
f 104//80 103//80 111//80 
f 103//80 102//80 111//80 
f 102//80 101//80 111//80 
f 87//80 111//80 91//80 
f 111//80 101//80 91//80 
f 2//81 53//81 55//81 
f 1//81 53//81 2//81 
f 5//81 53//81 1//81 
f 17//81 13//81 15//81 
f 19//81 13//81 17//81 
f 21//81 13//81 19//81 
f 23//81 13//81 21//81 
f 25//81 13//81 23//81 
f 27//81 13//81 25//81 
f 29//81 13//81 27//81 
f 31//81 13//81 29//81 
f 33//81 13//81 31//81 
f 13//81 9//81 11//81 
f 13//81 7//81 9//81 
f 13//81 5//81 7//81 
f 53//81 49//81 51//81 
f 53//81 47//81 49//81 
f 53//81 45//81 47//81 
f 53//81 43//81 45//81 
f 53//81 41//81 43//81 
f 53//81 39//81 41//81 
f 53//81 37//81 39//81 
f 53//81 35//81 37//81 
f 53//81 33//81 35//81 
f 13//81 53//81 5//81 
f 13//81 33//81 53//81 
# 220 faces

