# 3ds Max Wavefront OBJ Exporter v0.97b - (c)2007 guruware
# File Created: 03.02.2016 14:32:27

mtllib X.mtl

#
# object Text001
#

v  -0.1962 0.0000 -0.0100
v  -0.0371 0.0000 -0.2287
v  -0.1911 0.0100 -0.0000
v  -0.0289 0.0100 -0.2230
v  0.0008 0.0000 -0.2852
v  0.0008 0.0100 -0.2674
v  0.0360 0.0000 -0.2333
v  0.0278 0.0100 -0.2276
v  0.1942 0.0000 -0.0100
v  0.1890 0.0100 -0.0000
v  0.2736 0.0000 -0.0100
v  0.2930 0.0100 -0.0000
v  0.0408 0.0000 -0.3360
v  0.0531 0.0100 -0.3359
v  0.2554 0.0000 -0.6310
v  0.2750 0.0100 -0.6410
v  0.1868 0.0000 -0.6310
v  0.1818 0.0100 -0.6410
v  0.0632 0.0000 -0.4657
v  0.0552 0.0100 -0.4718
v  0.0550 0.0000 -0.4550
v  0.0470 0.0100 -0.4610
v  0.0471 0.0000 -0.4444
v  0.0391 0.0100 -0.4504
v  0.0396 0.0000 -0.4340
v  0.0314 0.0100 -0.4399
v  0.0323 0.0000 -0.4238
v  0.0241 0.0100 -0.4295
v  0.0254 0.0000 -0.4137
v  0.0171 0.0100 -0.4193
v  0.0187 0.0000 -0.4037
v  0.0104 0.0100 -0.4092
v  0.0035 0.0000 -0.3800
v  0.0040 0.0100 -0.3992
v  -0.0091 0.0000 -0.4019
v  -0.0005 0.0100 -0.4070
v  -0.0144 0.0000 -0.4105
v  -0.0059 0.0100 -0.4158
v  -0.0206 0.0000 -0.4202
v  -0.0122 0.0100 -0.4257
v  -0.0278 0.0000 -0.4310
v  -0.0195 0.0100 -0.4366
v  -0.0358 0.0000 -0.4429
v  -0.0276 0.0100 -0.4485
v  -0.0448 0.0000 -0.4558
v  -0.0366 0.0100 -0.4615
v  -0.0547 0.0000 -0.4698
v  -0.0466 0.0100 -0.4756
v  -0.1698 0.0000 -0.6310
v  -0.1647 0.0100 -0.6410
v  -0.2457 0.0000 -0.6310
v  -0.2650 0.0100 -0.6410
v  -0.0343 0.0000 -0.3325
v  -0.0466 0.0100 -0.3326
v  -0.2731 0.0000 -0.0100
v  -0.2930 0.0100 -0.0000
v  -0.1911 0.1100 -0.0000
v  -0.0289 0.1100 -0.2230
v  0.0008 0.1100 -0.2674
v  0.0278 0.1100 -0.2276
v  0.1890 0.1100 -0.0000
v  0.2930 0.1100 -0.0000
v  0.0531 0.1100 -0.3359
v  0.2750 0.1100 -0.6410
v  0.1818 0.1100 -0.6410
v  0.0552 0.1100 -0.4718
v  0.0470 0.1100 -0.4610
v  0.0391 0.1100 -0.4504
v  0.0314 0.1100 -0.4399
v  0.0241 0.1100 -0.4295
v  0.0171 0.1100 -0.4193
v  0.0104 0.1100 -0.4092
v  0.0040 0.1100 -0.3992
v  -0.0005 0.1100 -0.4070
v  -0.0059 0.1100 -0.4158
v  -0.0122 0.1100 -0.4257
v  -0.0195 0.1100 -0.4366
v  -0.0276 0.1100 -0.4485
v  -0.0366 0.1100 -0.4615
v  -0.0466 0.1100 -0.4756
v  -0.1647 0.1100 -0.6410
v  -0.2650 0.1100 -0.6410
v  -0.0466 0.1100 -0.3326
v  -0.2930 0.1100 -0.0000
v  -0.1962 0.1200 -0.0100
v  -0.0371 0.1200 -0.2287
v  0.0008 0.1200 -0.2852
v  0.0360 0.1200 -0.2333
v  0.1942 0.1200 -0.0100
v  0.2736 0.1200 -0.0100
v  0.0408 0.1200 -0.3360
v  0.2554 0.1200 -0.6310
v  0.1868 0.1200 -0.6310
v  0.0632 0.1200 -0.4657
v  0.0550 0.1200 -0.4550
v  0.0471 0.1200 -0.4444
v  0.0396 0.1200 -0.4340
v  0.0323 0.1200 -0.4238
v  0.0254 0.1200 -0.4137
v  0.0187 0.1200 -0.4037
v  0.0035 0.1200 -0.3800
v  -0.0091 0.1200 -0.4019
v  -0.0144 0.1200 -0.4105
v  -0.0206 0.1200 -0.4202
v  -0.0278 0.1200 -0.4310
v  -0.0358 0.1200 -0.4429
v  -0.0448 0.1200 -0.4558
v  -0.0547 0.1200 -0.4698
v  -0.1698 0.1200 -0.6310
v  -0.2457 0.1200 -0.6310
v  -0.0343 0.1200 -0.3325
v  -0.2731 0.1200 -0.0100
# 112 vertices

vn 0.5719 -0.7071 0.4159
vn 0.5870 -0.7071 0.3942
vn -0.5853 -0.7071 0.3968
vn -0.5770 -0.7071 0.4087
vn 0.0000 -0.7071 0.7071
vn 0.5755 -0.7071 -0.4109
vn 0.0000 -0.7071 -0.7071
vn -0.5662 -0.7071 -0.4235
vn -0.5618 -0.7071 -0.4294
vn -0.5643 -0.7071 -0.4260
vn -0.5695 -0.7071 -0.4191
vn -0.5748 -0.7071 -0.4118
vn -0.5803 -0.7071 -0.4041
vn -0.5859 -0.7071 -0.3959
vn -0.5916 -0.7071 -0.3873
vn -0.5945 -0.7071 -0.3828
vn 0.6123 -0.7071 -0.3536
vn 0.6077 -0.7071 -0.3614
vn 0.5994 -0.7071 -0.3751
vn 0.5927 -0.7071 -0.3856
vn 0.5872 -0.7071 -0.3939
vn 0.5827 -0.7071 -0.4006
vn 0.5788 -0.7071 -0.4061
vn 0.5771 -0.7071 -0.4086
vn -0.5682 -0.7071 -0.4209
vn 0.8087 0.0000 0.5882
vn 0.8302 0.0000 0.5575
vn -0.8277 0.0000 0.5611
vn -0.8160 0.0000 0.5780
vn 0.0000 0.0000 1.0000
vn 0.8138 0.0000 -0.5811
vn 0.8088 0.0000 0.5881
vn 0.0000 0.0000 -1.0000
vn -0.8008 0.0000 -0.5990
vn -0.7945 0.0000 -0.6073
vn -0.7981 0.0000 -0.6025
vn -0.8054 0.0000 -0.5927
vn -0.8129 0.0000 -0.5823
vn -0.8207 0.0000 -0.5714
vn -0.8286 0.0000 -0.5599
vn -0.8367 0.0000 -0.5477
vn -0.8408 0.0000 -0.5414
vn 0.8660 0.0000 -0.5001
vn 0.8595 0.0000 -0.5111
vn 0.8477 0.0000 -0.5305
vn 0.8382 0.0000 -0.5453
vn 0.8305 0.0000 -0.5570
vn 0.8241 0.0000 -0.5665
vn 0.8186 0.0000 -0.5743
vn 0.8161 0.0000 -0.5779
vn -0.8161 0.0000 0.5780
vn -0.8036 0.0000 -0.5952
vn 0.5719 0.7071 0.4159
vn 0.5870 0.7071 0.3942
vn -0.5853 0.7071 0.3968
vn -0.5770 0.7071 0.4087
vn 0.0000 0.7071 0.7071
vn 0.5755 0.7071 -0.4109
vn 0.0000 0.7071 -0.7071
vn -0.5662 0.7071 -0.4235
vn -0.5618 0.7071 -0.4294
vn -0.5643 0.7071 -0.4260
vn -0.5695 0.7071 -0.4191
vn -0.5748 0.7071 -0.4118
vn -0.5803 0.7071 -0.4041
vn -0.5859 0.7071 -0.3959
vn -0.5916 0.7071 -0.3873
vn -0.5945 0.7071 -0.3828
vn 0.6123 0.7071 -0.3536
vn 0.6077 0.7071 -0.3614
vn 0.5994 0.7071 -0.3751
vn 0.5927 0.7071 -0.3856
vn 0.5872 0.7071 -0.3939
vn 0.5827 0.7071 -0.4006
vn 0.5788 0.7071 -0.4061
vn 0.5771 0.7071 -0.4086
vn -0.5682 0.7071 -0.4209
vn 0.0000 1.0000 -0.0000
vn 0.0000 -1.0000 -0.0000
# 79 vertex normals

g Text001
usemtl wire_135110008
s 2
f 1//1 2//1 3//1 
f 2//1 4//1 3//1 
s 4
f 2//2 5//2 4//2 
f 5//2 6//2 4//2 
s 8
f 5//3 7//3 6//3 
f 7//3 8//3 6//3 
s 16
f 7//4 9//4 8//4 
f 9//4 10//4 8//4 
s 2
f 9//5 11//5 10//5 
f 11//5 12//5 10//5 
s 4
f 11//6 13//6 12//6 
f 13//6 14//6 12//6 
s 8
f 13//1 15//1 14//1 
f 15//1 16//1 14//1 
s 16
f 15//7 17//7 16//7 
f 17//7 18//7 16//7 
s 2
f 17//8 19//8 18//8 
f 19//8 20//8 18//8 
s 4
f 19//9 21//10 20//9 
f 21//10 22//10 20//9 
f 21//10 23//11 22//10 
f 23//11 24//11 22//10 
f 23//11 25//12 24//11 
f 25//12 26//12 24//11 
f 25//12 27//13 26//12 
f 27//13 28//13 26//12 
f 27//13 29//14 28//13 
f 29//14 30//14 28//13 
f 29//14 31//15 30//14 
f 31//15 32//15 30//14 
f 31//15 33//16 32//15 
f 33//16 34//16 32//15 
s 8
f 33//17 35//18 34//17 
f 35//18 36//18 34//17 
f 35//18 37//19 36//18 
f 37//19 38//19 36//18 
f 37//19 39//20 38//19 
f 39//20 40//20 38//19 
f 39//20 41//21 40//20 
f 41//21 42//21 40//20 
f 41//21 43//22 42//21 
f 43//22 44//22 42//21 
f 43//22 45//23 44//22 
f 45//23 46//23 44//22 
f 45//23 47//24 46//23 
f 47//24 48//24 46//23 
s 16
f 47//6 49//6 48//6 
f 49//6 50//6 48//6 
s 2
f 49//7 51//7 50//7 
f 51//7 52//7 50//7 
s 4
f 51//4 53//4 52//4 
f 53//4 54//4 52//4 
s 8
f 53//25 55//25 54//25 
f 55//25 56//25 54//25 
s 17
f 55//5 1//5 56//5 
f 1//5 3//5 56//5 
s 64
f 3//26 4//26 57//26 
f 4//26 58//26 57//26 
s 128
f 4//27 6//27 58//27 
f 6//27 59//27 58//27 
s 256
f 6//28 8//28 59//28 
f 8//28 60//28 59//28 
s 512
f 8//29 10//29 60//29 
f 10//29 61//29 60//29 
s 64
f 10//30 12//30 61//30 
f 12//30 62//30 61//30 
s 128
f 12//31 14//31 62//31 
f 14//31 63//31 62//31 
s 256
f 14//32 16//32 63//32 
f 16//32 64//32 63//32 
s 512
f 16//33 18//33 64//33 
f 18//33 65//33 64//33 
s 64
f 18//34 20//34 65//34 
f 20//34 66//34 65//34 
s 128
f 20//35 22//36 66//35 
f 22//36 67//36 66//35 
f 22//36 24//37 67//36 
f 24//37 68//37 67//36 
f 24//37 26//38 68//37 
f 26//38 69//38 68//37 
f 26//38 28//39 69//38 
f 28//39 70//39 69//38 
f 28//39 30//40 70//39 
f 30//40 71//40 70//39 
f 30//40 32//41 71//40 
f 32//41 72//41 71//40 
f 32//41 34//42 72//41 
f 34//42 73//42 72//41 
s 256
f 34//43 36//44 73//43 
f 36//44 74//44 73//43 
f 36//44 38//45 74//44 
f 38//45 75//45 74//44 
f 38//45 40//46 75//45 
f 40//46 76//46 75//45 
f 40//46 42//47 76//46 
f 42//47 77//47 76//46 
f 42//47 44//48 77//47 
f 44//48 78//48 77//47 
f 44//48 46//49 78//48 
f 46//49 79//49 78//48 
f 46//49 48//50 79//49 
f 48//50 80//50 79//49 
s 512
f 48//31 50//31 80//31 
f 50//31 81//31 80//31 
s 64
f 50//33 52//33 81//33 
f 52//33 82//33 81//33 
s 128
f 52//51 54//51 82//51 
f 54//51 83//51 82//51 
s 256
f 54//52 56//52 83//52 
f 56//52 84//52 83//52 
s 544
f 56//30 3//30 84//30 
f 3//30 57//30 84//30 
s 2
f 57//53 58//53 85//53 
f 58//53 86//53 85//53 
s 4
f 58//54 59//54 86//54 
f 59//54 87//54 86//54 
s 8
f 59//55 60//55 87//55 
f 60//55 88//55 87//55 
s 16
f 60//56 61//56 88//56 
f 61//56 89//56 88//56 
s 2
f 61//57 62//57 89//57 
f 62//57 90//57 89//57 
s 4
f 62//58 63//58 90//58 
f 63//58 91//58 90//58 
s 8
f 63//53 64//53 91//53 
f 64//53 92//53 91//53 
s 16
f 64//59 65//59 92//59 
f 65//59 93//59 92//59 
s 2
f 65//60 66//60 93//60 
f 66//60 94//60 93//60 
s 4
f 66//61 67//62 94//61 
f 67//62 95//62 94//61 
f 67//62 68//63 95//62 
f 68//63 96//63 95//62 
f 68//63 69//64 96//63 
f 69//64 97//64 96//63 
f 69//64 70//65 97//64 
f 70//65 98//65 97//64 
f 70//65 71//66 98//65 
f 71//66 99//66 98//65 
f 71//66 72//67 99//66 
f 72//67 100//67 99//66 
f 72//67 73//68 100//67 
f 73//68 101//68 100//67 
s 8
f 73//69 74//70 101//69 
f 74//70 102//70 101//69 
f 74//70 75//71 102//70 
f 75//71 103//71 102//70 
f 75//71 76//72 103//71 
f 76//72 104//72 103//71 
f 76//72 77//73 104//72 
f 77//73 105//73 104//72 
f 77//73 78//74 105//73 
f 78//74 106//74 105//73 
f 78//74 79//75 106//74 
f 79//75 107//75 106//74 
f 79//75 80//76 107//75 
f 80//76 108//76 107//75 
s 16
f 80//58 81//58 108//58 
f 81//58 109//58 108//58 
s 2
f 81//59 82//59 109//59 
f 82//59 110//59 109//59 
s 4
f 82//56 83//56 110//56 
f 83//56 111//56 110//56 
s 8
f 83//77 84//77 111//77 
f 84//77 112//77 111//77 
s 17
f 84//57 57//57 112//57 
f 57//57 85//57 112//57 
s 1024
f 111//78 112//78 85//78 
f 111//78 85//78 86//78 
f 111//78 86//78 87//78 
f 91//78 92//78 93//78 
f 91//78 93//78 94//78 
f 91//78 94//78 95//78 
f 91//78 95//78 96//78 
f 91//78 96//78 97//78 
f 91//78 97//78 98//78 
f 91//78 98//78 99//78 
f 91//78 99//78 100//78 
f 91//78 100//78 101//78 
f 89//78 90//78 91//78 
f 88//78 89//78 91//78 
f 87//78 88//78 91//78 
f 109//78 110//78 111//78 
f 108//78 109//78 111//78 
f 107//78 108//78 111//78 
f 106//78 107//78 111//78 
f 105//78 106//78 111//78 
f 104//78 105//78 111//78 
f 103//78 104//78 111//78 
f 102//78 103//78 111//78 
f 101//78 102//78 111//78 
f 111//78 87//78 91//78 
f 101//78 111//78 91//78 
f 53//79 1//79 55//79 
f 53//79 2//79 1//79 
f 53//79 5//79 2//79 
f 13//79 17//79 15//79 
f 13//79 19//79 17//79 
f 13//79 21//79 19//79 
f 13//79 23//79 21//79 
f 13//79 25//79 23//79 
f 13//79 27//79 25//79 
f 13//79 29//79 27//79 
f 13//79 31//79 29//79 
f 13//79 33//79 31//79 
f 9//79 13//79 11//79 
f 7//79 13//79 9//79 
f 5//79 13//79 7//79 
f 49//79 53//79 51//79 
f 47//79 53//79 49//79 
f 45//79 53//79 47//79 
f 43//79 53//79 45//79 
f 41//79 53//79 43//79 
f 39//79 53//79 41//79 
f 37//79 53//79 39//79 
f 35//79 53//79 37//79 
f 33//79 53//79 35//79 
f 53//79 13//79 5//79 
f 33//79 13//79 53//79 
# 220 faces

