# 3ds Max Wavefront OBJ Exporter v0.97b - (c)2007 guruware
# File Created: 03.02.2016 14:33:03

mtllib Y.mtl

#
# object Text001
#

v  0.0280 0.0000 -0.0100
v  0.0280 0.0000 -0.2747
v  0.0380 0.0100 -0.0000
v  0.0380 0.0100 -0.2715
v  0.2749 0.0000 -0.6310
v  0.2940 0.0100 -0.6410
v  0.2006 0.0000 -0.6310
v  0.1952 0.0100 -0.6410
v  0.0795 0.0000 -0.4466
v  0.0710 0.0100 -0.4520
v  0.0003 0.0000 -0.3197
v  0.0005 0.0100 -0.3388
v  -0.0734 0.0000 -0.4419
v  -0.0650 0.0100 -0.4472
v  -0.1974 0.0000 -0.6310
v  -0.1920 0.0100 -0.6410
v  -0.2753 0.0000 -0.6310
v  -0.2940 0.0100 -0.6410
v  -0.0370 0.0000 -0.2746
v  -0.0470 0.0100 -0.2715
v  -0.0370 0.0000 -0.0100
v  -0.0470 0.0100 -0.0000
v  0.0380 0.1100 -0.0000
v  0.0380 0.1100 -0.2715
v  0.2940 0.1100 -0.6410
v  0.1952 0.1100 -0.6410
v  0.0710 0.1100 -0.4520
v  0.0005 0.1100 -0.3388
v  -0.0650 0.1100 -0.4472
v  -0.1920 0.1100 -0.6410
v  -0.2940 0.1100 -0.6410
v  -0.0470 0.1100 -0.2715
v  -0.0470 0.1100 -0.0000
v  0.0280 0.1200 -0.0100
v  0.0280 0.1200 -0.2747
v  0.2749 0.1200 -0.6310
v  0.2006 0.1200 -0.6310
v  0.0795 0.1200 -0.4466
v  0.0003 0.1200 -0.3197
v  -0.0734 0.1200 -0.4419
v  -0.1974 0.1200 -0.6310
v  -0.2753 0.1200 -0.6310
v  -0.0370 0.1200 -0.2746
v  -0.0370 0.1200 -0.0100
# 44 vertices

vn 0.7071 -0.7071 -0.0000
vn 0.5812 -0.7071 0.4027
vn 0.0000 -0.7071 -0.7071
vn -0.5910 -0.7071 -0.3883
vn -0.6000 -0.7071 -0.3741
vn 0.6054 -0.7071 -0.3654
vn 0.5915 -0.7071 -0.3875
vn -0.5878 -0.7071 0.3930
vn -0.7071 -0.7071 -0.0000
vn 0.0000 -0.7071 0.7071
vn 1.0000 0.0000 -0.0000
vn 0.8220 0.0000 0.5695
vn 0.0000 0.0000 -1.0000
vn -0.8357 0.0000 -0.5491
vn -0.8486 0.0000 -0.5291
vn 0.8561 0.0000 -0.5168
vn 0.8365 0.0000 -0.5480
vn -0.8313 0.0000 0.5558
vn -1.0000 0.0000 -0.0000
vn 0.0000 0.0000 1.0000
vn 0.7071 0.7071 -0.0000
vn 0.5812 0.7071 0.4027
vn 0.0000 0.7071 -0.7071
vn -0.5910 0.7071 -0.3883
vn -0.6000 0.7071 -0.3741
vn 0.6054 0.7071 -0.3654
vn 0.5915 0.7071 -0.3875
vn -0.5878 0.7071 0.3930
vn -0.7071 0.7071 -0.0000
vn 0.0000 0.7071 0.7071
vn 0.0000 1.0000 -0.0000
vn 0.0000 -1.0000 -0.0000
# 32 vertex normals

g Text001
usemtl wire_088088225
s 2
f 1//1 2//1 3//1 
f 2//1 4//1 3//1 
s 4
f 2//2 5//2 4//2 
f 5//2 6//2 4//2 
s 8
f 5//3 7//3 6//3 
f 7//3 8//3 6//3 
s 16
f 7//4 9//4 8//4 
f 9//4 10//4 8//4 
s 2
f 9//5 11//5 10//5 
f 11//5 12//5 10//5 
s 4
f 11//6 13//6 12//6 
f 13//6 14//6 12//6 
s 8
f 13//7 15//7 14//7 
f 15//7 16//7 14//7 
s 16
f 15//3 17//3 16//3 
f 17//3 18//3 16//3 
s 2
f 17//8 19//8 18//8 
f 19//8 20//8 18//8 
s 4
f 19//9 21//9 20//9 
f 21//9 22//9 20//9 
s 9
f 21//10 1//10 22//10 
f 1//10 3//10 22//10 
s 64
f 3//11 4//11 23//11 
f 4//11 24//11 23//11 
s 128
f 4//12 6//12 24//12 
f 6//12 25//12 24//12 
s 256
f 6//13 8//13 25//13 
f 8//13 26//13 25//13 
s 512
f 8//14 10//14 26//14 
f 10//14 27//14 26//14 
s 64
f 10//15 12//15 27//15 
f 12//15 28//15 27//15 
s 128
f 12//16 14//16 28//16 
f 14//16 29//16 28//16 
s 256
f 14//17 16//17 29//17 
f 16//17 30//17 29//17 
s 512
f 16//13 18//13 30//13 
f 18//13 31//13 30//13 
s 64
f 18//18 20//18 31//18 
f 20//18 32//18 31//18 
s 128
f 20//19 22//19 32//19 
f 22//19 33//19 32//19 
s 288
f 22//20 3//20 33//20 
f 3//20 23//20 33//20 
s 2
f 23//21 24//21 34//21 
f 24//21 35//21 34//21 
s 4
f 24//22 25//22 35//22 
f 25//22 36//22 35//22 
s 8
f 25//23 26//23 36//23 
f 26//23 37//23 36//23 
s 16
f 26//24 27//24 37//24 
f 27//24 38//24 37//24 
s 2
f 27//25 28//25 38//25 
f 28//25 39//25 38//25 
s 4
f 28//26 29//26 39//26 
f 29//26 40//26 39//26 
s 8
f 29//27 30//27 40//27 
f 30//27 41//27 40//27 
s 16
f 30//23 31//23 41//23 
f 31//23 42//23 41//23 
s 2
f 31//28 32//28 42//28 
f 32//28 43//28 42//28 
s 4
f 32//29 33//29 43//29 
f 33//29 44//29 43//29 
s 9
f 33//30 23//30 44//30 
f 23//30 34//30 44//30 
s 1024
f 35//31 36//31 37//31 
f 35//31 37//31 38//31 
f 35//31 38//31 39//31 
f 41//31 42//31 43//31 
f 40//31 41//31 43//31 
f 39//31 40//31 43//31 
f 35//31 39//31 43//31 
f 34//31 35//31 43//31 
f 34//31 43//31 44//31 
f 2//32 7//32 5//32 
f 2//32 9//32 7//32 
f 2//32 11//32 9//32 
f 15//32 19//32 17//32 
f 13//32 19//32 15//32 
f 11//32 19//32 13//32 
f 2//32 19//32 11//32 
f 1//32 19//32 2//32 
f 1//32 21//32 19//32 
# 84 faces

