# 3ds Max Wavefront OBJ Exporter v0.97b - (c)2007 guruware
# File Created: 10.02.2016 14:46:23

mtllib Z.mtl

#
# object Text001
#

v  0.2435 0.0000 -0.0100
v  0.2435 0.0000 -0.0660
v  0.2535 0.0100 -0.0000
v  0.2535 0.0100 -0.0760
v  -0.1775 0.0000 -0.0660
v  -0.1560 0.0100 -0.0760
v  -0.1256 0.0000 -0.1275
v  -0.1179 0.0100 -0.1212
v  0.2325 0.0000 -0.5685
v  0.2425 0.0100 -0.5650
v  0.2325 0.0000 -0.6310
v  0.2425 0.0100 -0.6410
v  -0.2065 0.0000 -0.6310
v  -0.2165 0.0100 -0.6410
v  -0.2065 0.0000 -0.5750
v  -0.2165 0.0100 -0.5650
v  0.1645 0.0000 -0.5750
v  0.1412 0.0100 -0.5650
v  0.1395 0.0000 -0.5487
v  0.1322 0.0100 -0.5555
v  0.1304 0.0000 -0.5388
v  0.1230 0.0100 -0.5455
v  0.1212 0.0000 -0.5285
v  0.1137 0.0100 -0.5351
v  0.1119 0.0000 -0.5177
v  0.1043 0.0100 -0.5241
v  0.1024 0.0000 -0.5064
v  0.0947 0.0100 -0.5127
v  0.0928 0.0000 -0.4946
v  0.0850 0.0100 -0.5009
v  0.0831 0.0000 -0.4823
v  0.0752 0.0100 -0.4885
v  -0.2435 0.0000 -0.0755
v  -0.2535 0.0100 -0.0791
v  -0.2435 0.0000 -0.0100
v  -0.2535 0.0100 -0.0000
v  0.2535 0.1100 -0.0000
v  0.2535 0.1100 -0.0760
v  -0.1560 0.1100 -0.0760
v  -0.1179 0.1100 -0.1212
v  0.2425 0.1100 -0.5650
v  0.2425 0.1100 -0.6410
v  -0.2165 0.1100 -0.6410
v  -0.2165 0.1100 -0.5650
v  0.1412 0.1100 -0.5650
v  0.1322 0.1100 -0.5555
v  0.1230 0.1100 -0.5455
v  0.1137 0.1100 -0.5351
v  0.1043 0.1100 -0.5241
v  0.0947 0.1100 -0.5127
v  0.0850 0.1100 -0.5009
v  0.0752 0.1100 -0.4885
v  -0.2535 0.1100 -0.0791
v  -0.2535 0.1100 -0.0000
v  0.2435 0.1200 -0.0100
v  0.2435 0.1200 -0.0660
v  -0.1775 0.1200 -0.0660
v  -0.1256 0.1200 -0.1275
v  0.2325 0.1200 -0.5685
v  0.2325 0.1200 -0.6310
v  -0.2065 0.1200 -0.6310
v  -0.2065 0.1200 -0.5750
v  0.1645 0.1200 -0.5750
v  0.1395 0.1200 -0.5487
v  0.1304 0.1200 -0.5388
v  0.1212 0.1200 -0.5285
v  0.1119 0.1200 -0.5177
v  0.1024 0.1200 -0.5064
v  0.0928 0.1200 -0.4946
v  0.0831 0.1200 -0.4823
v  -0.2435 0.1200 -0.0755
v  -0.2435 0.1200 -0.0100
# 72 vertices

vn 0.7071 -0.7071 -0.0000
vn 0.0000 -0.7071 -0.7071
vn 0.5405 -0.7071 0.4559
vn 0.5489 -0.7071 0.4457
vn -0.7071 -0.7071 -0.0000
vn 0.0000 -0.7071 0.7071
vn -0.5120 -0.7071 -0.4877
vn -0.5163 -0.7071 -0.4832
vn -0.5244 -0.7071 -0.4743
vn -0.5319 -0.7071 -0.4659
vn -0.5388 -0.7071 -0.4579
vn -0.5452 -0.7071 -0.4503
vn -0.5511 -0.7071 -0.4430
vn -0.5540 -0.7071 -0.4395
vn -0.5514 -0.7071 -0.4427
vn 1.0000 0.0000 -0.0000
vn 0.0000 0.0000 -1.0000
vn 0.7643 0.0000 0.6448
vn 0.7763 0.0000 0.6304
vn -1.0000 0.0000 -0.0000
vn 0.0000 0.0000 1.0000
vn -0.7241 0.0000 -0.6897
vn -0.7301 0.0000 -0.6833
vn -0.7416 0.0000 -0.6708
vn -0.7522 0.0000 -0.6589
vn -0.7620 0.0000 -0.6476
vn -0.7710 0.0000 -0.6368
vn -0.7794 0.0000 -0.6265
vn -0.7834 0.0000 -0.6215
vn -0.7798 0.0000 -0.6261
vn 0.7071 0.7071 -0.0000
vn 0.0000 0.7071 -0.7071
vn 0.5405 0.7071 0.4559
vn 0.5489 0.7071 0.4457
vn -0.7071 0.7071 -0.0000
vn 0.0000 0.7071 0.7071
vn -0.5120 0.7071 -0.4877
vn -0.5163 0.7071 -0.4832
vn -0.5244 0.7071 -0.4743
vn -0.5319 0.7071 -0.4659
vn -0.5388 0.7071 -0.4579
vn -0.5452 0.7071 -0.4503
vn -0.5511 0.7071 -0.4430
vn -0.5540 0.7071 -0.4395
vn -0.5514 0.7071 -0.4427
vn 0.0000 1.0000 -0.0000
vn 0.0000 -1.0000 -0.0000
# 47 vertex normals

g Text001
usemtl wire_198225087
s 2
f 1//1 2//1 3//1 
f 2//1 4//1 3//1 
s 4
f 2//2 5//2 4//2 
f 5//2 6//2 4//2 
s 8
f 5//3 7//3 6//3 
f 7//3 8//3 6//3 
s 16
f 7//4 9//4 8//4 
f 9//4 10//4 8//4 
s 2
f 9//1 11//1 10//1 
f 11//1 12//1 10//1 
s 4
f 11//2 13//2 12//2 
f 13//2 14//2 12//2 
s 8
f 13//5 15//5 14//5 
f 15//5 16//5 14//5 
s 16
f 15//6 17//6 16//6 
f 17//6 18//6 16//6 
s 2
f 17//7 19//8 18//7 
f 19//8 20//8 18//7 
f 19//8 21//9 20//8 
f 21//9 22//9 20//8 
f 21//9 23//10 22//9 
f 23//10 24//10 22//9 
f 23//10 25//11 24//10 
f 25//11 26//11 24//10 
f 25//11 27//12 26//11 
f 27//12 28//12 26//11 
f 27//12 29//13 28//12 
f 29//13 30//13 28//12 
f 29//13 31//14 30//13 
f 31//14 32//14 30//13 
s 4
f 31//15 33//15 32//15 
f 33//15 34//15 32//15 
s 8
f 33//5 35//5 34//5 
f 35//5 36//5 34//5 
s 17
f 35//6 1//6 36//6 
f 1//6 3//6 36//6 
s 64
f 3//16 4//16 37//16 
f 4//16 38//16 37//16 
s 128
f 4//17 6//17 38//17 
f 6//17 39//17 38//17 
s 256
f 6//18 8//18 39//18 
f 8//18 40//18 39//18 
s 512
f 8//19 10//19 40//19 
f 10//19 41//19 40//19 
s 64
f 10//16 12//16 41//16 
f 12//16 42//16 41//16 
s 128
f 12//17 14//17 42//17 
f 14//17 43//17 42//17 
s 256
f 14//20 16//20 43//20 
f 16//20 44//20 43//20 
s 512
f 16//21 18//21 44//21 
f 18//21 45//21 44//21 
s 64
f 18//22 20//23 45//22 
f 20//23 46//23 45//22 
f 20//23 22//24 46//23 
f 22//24 47//24 46//23 
f 22//24 24//25 47//24 
f 24//25 48//25 47//24 
f 24//25 26//26 48//25 
f 26//26 49//26 48//25 
f 26//26 28//27 49//26 
f 28//27 50//27 49//26 
f 28//27 30//28 50//27 
f 30//28 51//28 50//27 
f 30//28 32//29 51//28 
f 32//29 52//29 51//28 
s 128
f 32//30 34//30 52//30 
f 34//30 53//30 52//30 
s 256
f 34//20 36//20 53//20 
f 36//20 54//20 53//20 
s 544
f 36//21 3//21 54//21 
f 3//21 37//21 54//21 
s 2
f 37//31 38//31 55//31 
f 38//31 56//31 55//31 
s 4
f 38//32 39//32 56//32 
f 39//32 57//32 56//32 
s 8
f 39//33 40//33 57//33 
f 40//33 58//33 57//33 
s 16
f 40//34 41//34 58//34 
f 41//34 59//34 58//34 
s 2
f 41//31 42//31 59//31 
f 42//31 60//31 59//31 
s 4
f 42//32 43//32 60//32 
f 43//32 61//32 60//32 
s 8
f 43//35 44//35 61//35 
f 44//35 62//35 61//35 
s 16
f 44//36 45//36 62//36 
f 45//36 63//36 62//36 
s 2
f 45//37 46//38 63//37 
f 46//38 64//38 63//37 
f 46//38 47//39 64//38 
f 47//39 65//39 64//38 
f 47//39 48//40 65//39 
f 48//40 66//40 65//39 
f 48//40 49//41 66//40 
f 49//41 67//41 66//40 
f 49//41 50//42 67//41 
f 50//42 68//42 67//41 
f 50//42 51//43 68//42 
f 51//43 69//43 68//42 
f 51//43 52//44 69//43 
f 52//44 70//44 69//43 
s 4
f 52//45 53//45 70//45 
f 53//45 71//45 70//45 
s 8
f 53//35 54//35 71//35 
f 54//35 72//35 71//35 
s 17
f 54//36 37//36 72//36 
f 37//36 55//36 72//36 
s 1024
f 61//46 62//46 63//46 
f 60//46 61//46 63//46 
f 59//46 60//46 63//46 
f 58//46 59//46 63//46 
f 58//46 63//46 64//46 
f 58//46 64//46 65//46 
f 58//46 65//46 66//46 
f 58//46 66//46 67//46 
f 58//46 67//46 68//46 
f 58//46 68//46 69//46 
f 58//46 69//46 70//46 
f 58//46 70//46 71//46 
f 57//46 58//46 71//46 
f 57//46 71//46 72//46 
f 57//46 72//46 55//46 
f 56//46 57//46 55//46 
f 13//47 17//47 15//47 
f 11//47 17//47 13//47 
f 9//47 17//47 11//47 
f 7//47 17//47 9//47 
f 7//47 19//47 17//47 
f 7//47 21//47 19//47 
f 7//47 23//47 21//47 
f 7//47 25//47 23//47 
f 7//47 27//47 25//47 
f 7//47 29//47 27//47 
f 7//47 31//47 29//47 
f 7//47 33//47 31//47 
f 5//47 33//47 7//47 
f 5//47 35//47 33//47 
f 5//47 1//47 35//47 
f 2//47 1//47 5//47 
# 140 faces

